<svg width="209" height="209" viewBox="0 0 209 209" fill="none" xmlns="http://www.w3.org/2000/svg">
<circle cx="104.5" cy="104.5" r="104.5" fill="#3BDEDB"/>
<path d="M42.9 165L49.2 151H51.76L58.08 165H55.36L49.94 152.38H50.98L45.58 165H42.9ZM45.8 161.76L46.5 159.72H54.06L54.76 161.76H45.8ZM64.0628 165.14C63.0361 165.14 62.1095 164.913 61.2828 164.46C60.4695 163.993 59.8295 163.353 59.3628 162.54C58.8961 161.727 58.6628 160.767 58.6628 159.66C58.6628 158.553 58.8961 157.593 59.3628 156.78C59.8295 155.967 60.4695 155.333 61.2828 154.88C62.1095 154.427 63.0361 154.2 64.0628 154.2C64.9561 154.2 65.7561 154.4 66.4628 154.8C67.1695 155.187 67.7295 155.78 68.1428 156.58C68.5561 157.38 68.7628 158.407 68.7628 159.66C68.7628 160.9 68.5628 161.927 68.1628 162.74C67.7628 163.54 67.2095 164.14 66.5028 164.54C65.7961 164.94 64.9828 165.14 64.0628 165.14ZM64.3628 163C64.9628 163 65.4961 162.867 65.9628 162.6C66.4428 162.333 66.8228 161.947 67.1028 161.44C67.3961 160.933 67.5428 160.34 67.5428 159.66C67.5428 158.967 67.3961 158.373 67.1028 157.88C66.8228 157.373 66.4428 156.987 65.9628 156.72C65.4961 156.453 64.9628 156.32 64.3628 156.32C63.7628 156.32 63.2228 156.453 62.7428 156.72C62.2761 156.987 61.8961 157.373 61.6028 157.88C61.3228 158.373 61.1828 158.967 61.1828 159.66C61.1828 160.34 61.3228 160.933 61.6028 161.44C61.8961 161.947 62.2761 162.333 62.7428 162.6C63.2228 162.867 63.7628 163 64.3628 163ZM67.6028 165V162.48L67.7028 159.64L67.5028 156.8V150.16H69.9828V165H67.6028ZM77.8133 165.14C76.7866 165.14 75.8599 164.913 75.0333 164.46C74.2199 163.993 73.5799 163.353 73.1133 162.54C72.6466 161.727 72.4133 160.767 72.4133 159.66C72.4133 158.553 72.6466 157.593 73.1133 156.78C73.5799 155.967 74.2199 155.333 75.0333 154.88C75.8599 154.427 76.7866 154.2 77.8133 154.2C78.7066 154.2 79.5066 154.4 80.2133 154.8C80.9199 155.187 81.4799 155.78 81.8933 156.58C82.3066 157.38 82.5133 158.407 82.5133 159.66C82.5133 160.9 82.3133 161.927 81.9133 162.74C81.5133 163.54 80.9599 164.14 80.2533 164.54C79.5466 164.94 78.7333 165.14 77.8133 165.14ZM78.1133 163C78.7133 163 79.2466 162.867 79.7133 162.6C80.1933 162.333 80.5733 161.947 80.8533 161.44C81.1466 160.933 81.2933 160.34 81.2933 159.66C81.2933 158.967 81.1466 158.373 80.8533 157.88C80.5733 157.373 80.1933 156.987 79.7133 156.72C79.2466 156.453 78.7133 156.32 78.1133 156.32C77.5133 156.32 76.9733 156.453 76.4933 156.72C76.0266 156.987 75.6466 157.373 75.3533 157.88C75.0733 158.373 74.9333 158.967 74.9333 159.66C74.9333 160.34 75.0733 160.933 75.3533 161.44C75.6466 161.947 76.0266 162.333 76.4933 162.6C76.9733 162.867 77.5133 163 78.1133 163ZM81.3533 165V162.48L81.4533 159.64L81.2533 156.8V150.16H83.7333V165H81.3533ZM92.5911 165V154.32H95.0911V165H92.5911ZM93.8511 152.56C93.3844 152.56 92.9978 152.413 92.6911 152.12C92.3978 151.827 92.2511 151.473 92.2511 151.06C92.2511 150.633 92.3978 150.28 92.6911 150C92.9978 149.707 93.3844 149.56 93.8511 149.56C94.3178 149.56 94.6978 149.7 94.9911 149.98C95.2978 150.247 95.4511 150.587 95.4511 151C95.4511 151.44 95.3044 151.813 95.0111 152.12C94.7178 152.413 94.3311 152.56 93.8511 152.56ZM111.872 154.2C112.726 154.2 113.479 154.367 114.132 154.7C114.799 155.033 115.319 155.547 115.692 156.24C116.066 156.92 116.252 157.8 116.252 158.88V165H113.752V159.2C113.752 158.253 113.546 157.547 113.132 157.08C112.719 156.613 112.126 156.38 111.352 156.38C110.806 156.38 110.319 156.5 109.892 156.74C109.479 156.98 109.152 157.333 108.912 157.8C108.686 158.267 108.572 158.86 108.572 159.58V165H106.072V159.2C106.072 158.253 105.866 157.547 105.452 157.08C105.039 156.613 104.446 156.38 103.672 156.38C103.126 156.38 102.639 156.5 102.212 156.74C101.799 156.98 101.472 157.333 101.232 157.8C101.006 158.267 100.892 158.86 100.892 159.58V165H98.3923V154.32H100.772V157.16L100.352 156.32C100.712 155.627 101.232 155.1 101.912 154.74C102.606 154.38 103.392 154.2 104.272 154.2C105.272 154.2 106.139 154.447 106.872 154.94C107.619 155.433 108.112 156.18 108.352 157.18L107.372 156.84C107.719 156.04 108.292 155.4 109.092 154.92C109.892 154.44 110.819 154.2 111.872 154.2ZM126.047 165V162.84L125.907 162.38V158.6C125.907 157.867 125.687 157.3 125.247 156.9C124.807 156.487 124.14 156.28 123.247 156.28C122.647 156.28 122.054 156.373 121.467 156.56C120.894 156.747 120.407 157.007 120.007 157.34L119.027 155.52C119.6 155.08 120.28 154.753 121.067 154.54C121.867 154.313 122.694 154.2 123.547 154.2C125.094 154.2 126.287 154.573 127.127 155.32C127.98 156.053 128.407 157.193 128.407 158.74V165H126.047ZM122.687 165.14C121.887 165.14 121.187 165.007 120.587 164.74C119.987 164.46 119.52 164.08 119.187 163.6C118.867 163.107 118.707 162.553 118.707 161.94C118.707 161.34 118.847 160.8 119.127 160.32C119.42 159.84 119.894 159.46 120.547 159.18C121.2 158.9 122.067 158.76 123.147 158.76H126.247V160.42H123.327C122.474 160.42 121.9 160.56 121.607 160.84C121.314 161.107 121.167 161.44 121.167 161.84C121.167 162.293 121.347 162.653 121.707 162.92C122.067 163.187 122.567 163.32 123.207 163.32C123.82 163.32 124.367 163.18 124.847 162.9C125.34 162.62 125.694 162.207 125.907 161.66L126.327 163.16C126.087 163.787 125.654 164.273 125.027 164.62C124.414 164.967 123.634 165.14 122.687 165.14ZM136.495 169.02C135.508 169.02 134.542 168.887 133.595 168.62C132.662 168.367 131.895 167.993 131.295 167.5L132.415 165.62C132.882 166.007 133.468 166.313 134.175 166.54C134.895 166.78 135.622 166.9 136.355 166.9C137.528 166.9 138.388 166.627 138.935 166.08C139.482 165.547 139.755 164.74 139.755 163.66V161.76L139.955 159.34L139.875 156.92V154.32H142.255V163.38C142.255 165.313 141.762 166.733 140.775 167.64C139.788 168.56 138.362 169.02 136.495 169.02ZM136.175 164.52C135.162 164.52 134.242 164.307 133.415 163.88C132.602 163.44 131.955 162.833 131.475 162.06C131.008 161.287 130.775 160.38 130.775 159.34C130.775 158.313 131.008 157.413 131.475 156.64C131.955 155.867 132.602 155.267 133.415 154.84C134.242 154.413 135.162 154.2 136.175 154.2C137.082 154.2 137.895 154.38 138.615 154.74C139.335 155.1 139.908 155.66 140.335 156.42C140.775 157.18 140.995 158.153 140.995 159.34C140.995 160.527 140.775 161.507 140.335 162.28C139.908 163.04 139.335 163.607 138.615 163.98C137.895 164.34 137.082 164.52 136.175 164.52ZM136.555 162.4C137.182 162.4 137.742 162.273 138.235 162.02C138.728 161.753 139.108 161.393 139.375 160.94C139.655 160.473 139.795 159.94 139.795 159.34C139.795 158.74 139.655 158.213 139.375 157.76C139.108 157.293 138.728 156.94 138.235 156.7C137.742 156.447 137.182 156.32 136.555 156.32C135.928 156.32 135.362 156.447 134.855 156.7C134.362 156.94 133.975 157.293 133.695 157.76C133.428 158.213 133.295 158.74 133.295 159.34C133.295 159.94 133.428 160.473 133.695 160.94C133.975 161.393 134.362 161.753 134.855 162.02C135.362 162.273 135.928 162.4 136.555 162.4ZM150.582 165.14C149.395 165.14 148.355 164.907 147.462 164.44C146.582 163.96 145.895 163.307 145.402 162.48C144.922 161.653 144.682 160.713 144.682 159.66C144.682 158.593 144.915 157.653 145.382 156.84C145.862 156.013 146.515 155.367 147.342 154.9C148.182 154.433 149.135 154.2 150.202 154.2C151.242 154.2 152.168 154.427 152.982 154.88C153.795 155.333 154.435 155.973 154.902 156.8C155.368 157.627 155.602 158.6 155.602 159.72C155.602 159.827 155.595 159.947 155.582 160.08C155.582 160.213 155.575 160.34 155.562 160.46H146.662V158.8H154.242L153.262 159.32C153.275 158.707 153.148 158.167 152.882 157.7C152.615 157.233 152.248 156.867 151.782 156.6C151.328 156.333 150.802 156.2 150.202 156.2C149.588 156.2 149.048 156.333 148.582 156.6C148.128 156.867 147.768 157.24 147.502 157.72C147.248 158.187 147.122 158.74 147.122 159.38V159.78C147.122 160.42 147.268 160.987 147.562 161.48C147.855 161.973 148.268 162.353 148.802 162.62C149.335 162.887 149.948 163.02 150.642 163.02C151.242 163.02 151.782 162.927 152.262 162.74C152.742 162.553 153.168 162.26 153.542 161.86L154.882 163.4C154.402 163.96 153.795 164.393 153.062 164.7C152.342 164.993 151.515 165.14 150.582 165.14ZM161.323 165.14C160.43 165.14 159.57 165.027 158.743 164.8C157.93 164.56 157.283 164.273 156.803 163.94L157.763 162.04C158.243 162.347 158.816 162.6 159.483 162.8C160.15 163 160.816 163.1 161.483 163.1C162.27 163.1 162.836 162.993 163.183 162.78C163.543 162.567 163.723 162.28 163.723 161.92C163.723 161.627 163.603 161.407 163.363 161.26C163.123 161.1 162.81 160.98 162.423 160.9C162.036 160.82 161.603 160.747 161.123 160.68C160.656 160.613 160.183 160.527 159.703 160.42C159.236 160.3 158.81 160.133 158.423 159.92C158.036 159.693 157.723 159.393 157.483 159.02C157.243 158.647 157.123 158.153 157.123 157.54C157.123 156.86 157.316 156.273 157.703 155.78C158.09 155.273 158.63 154.887 159.323 154.62C160.03 154.34 160.863 154.2 161.823 154.2C162.543 154.2 163.27 154.28 164.003 154.44C164.736 154.6 165.343 154.827 165.823 155.12L164.863 157.02C164.356 156.713 163.843 156.507 163.323 156.4C162.816 156.28 162.31 156.22 161.803 156.22C161.043 156.22 160.476 156.333 160.103 156.56C159.743 156.787 159.563 157.073 159.563 157.42C159.563 157.74 159.683 157.98 159.923 158.14C160.163 158.3 160.476 158.427 160.863 158.52C161.25 158.613 161.676 158.693 162.143 158.76C162.623 158.813 163.096 158.9 163.563 159.02C164.03 159.14 164.456 159.307 164.843 159.52C165.243 159.72 165.563 160.007 165.803 160.38C166.043 160.753 166.163 161.24 166.163 161.84C166.163 162.507 165.963 163.087 165.563 163.58C165.176 164.073 164.623 164.46 163.903 164.74C163.183 165.007 162.323 165.14 161.323 165.14Z" fill="#1EACC6"/>
<path d="M72.1 61.1111H84.25L92.35 53H116.65L124.75 61.1111H136.9C139.048 61.1111 141.109 61.9657 142.628 63.4868C144.147 65.0079 145 67.071 145 69.2222V117.889C145 120.04 144.147 122.103 142.628 123.624C141.109 125.145 139.048 126 136.9 126H72.1C69.9517 126 67.8915 125.145 66.3724 123.624C64.8534 122.103 64 120.04 64 117.889V69.2222C64 67.071 64.8534 65.0079 66.3724 63.4868C67.8915 61.9657 69.9517 61.1111 72.1 61.1111ZM104.5 73.2778C99.1294 73.2778 93.9787 75.4142 90.1811 79.217C86.3835 83.0198 84.25 88.1776 84.25 93.5556C84.25 98.9336 86.3835 104.091 90.1811 107.894C93.9787 111.697 99.1294 113.833 104.5 113.833C109.871 113.833 115.021 111.697 118.819 107.894C122.617 104.091 124.75 98.9336 124.75 93.5556C124.75 88.1776 122.617 83.0198 118.819 79.217C115.021 75.4142 109.871 73.2778 104.5 73.2778ZM104.5 81.3889C107.722 81.3889 110.813 82.6707 113.091 84.9524C115.37 87.2341 116.65 90.3288 116.65 93.5556C116.65 96.7824 115.37 99.877 113.091 102.159C110.813 104.44 107.722 105.722 104.5 105.722C101.278 105.722 98.1872 104.44 95.9087 102.159C93.6301 99.877 92.35 96.7824 92.35 93.5556C92.35 90.3288 93.6301 87.2341 95.9087 84.9524C98.1872 82.6707 101.278 81.3889 104.5 81.3889Z" fill="#1EACC6"/>
</svg>
