<svg width="146" height="56" viewBox="0 0 146 56" fill="none" xmlns="http://www.w3.org/2000/svg">
<g filter="url(#filter0_d_1189_1209)">
<rect x="4" width="138" height="48" rx="4" fill="#E2EFF1"/>
</g>
<g filter="url(#filter1_d_1189_1209)">
<path d="M22.856 29L27.848 17.8H30.408L35.416 29H32.696L28.6 19.112H29.624L25.512 29H22.856ZM25.352 26.6L26.04 24.632H31.8L32.504 26.6H25.352ZM40.0359 29.128C39.2252 29.128 38.4945 28.9467 37.8439 28.584C37.1932 28.2107 36.6759 27.6933 36.2919 27.032C35.9185 26.3707 35.7319 25.592 35.7319 24.696C35.7319 23.7893 35.9185 23.0053 36.2919 22.344C36.6759 21.6827 37.1932 21.1707 37.8439 20.808C38.4945 20.4453 39.2252 20.264 40.0359 20.264C40.7612 20.264 41.3959 20.424 41.9399 20.744C42.4839 21.064 42.9052 21.5493 43.2039 22.2C43.5025 22.8507 43.6519 23.6827 43.6519 24.696C43.6519 25.6987 43.5079 26.5307 43.2199 27.192C42.9319 27.8427 42.5159 28.328 41.9719 28.648C41.4385 28.968 40.7932 29.128 40.0359 29.128ZM40.4679 27.08C40.8732 27.08 41.2412 26.984 41.5719 26.792C41.9025 26.6 42.1639 26.328 42.3559 25.976C42.5585 25.6133 42.6599 25.1867 42.6599 24.696C42.6599 24.1947 42.5585 23.768 42.3559 23.416C42.1639 23.064 41.9025 22.792 41.5719 22.6C41.2412 22.408 40.8732 22.312 40.4679 22.312C40.0519 22.312 39.6785 22.408 39.3479 22.6C39.0172 22.792 38.7505 23.064 38.5479 23.416C38.3559 23.768 38.2599 24.1947 38.2599 24.696C38.2599 25.1867 38.3559 25.6133 38.5479 25.976C38.7505 26.328 39.0172 26.6 39.3479 26.792C39.6785 26.984 40.0519 27.08 40.4679 27.08ZM42.7239 29V27.24L42.7719 24.68L42.6119 22.136V17.128H45.1079V29H42.7239ZM51.13 29.128C50.3193 29.128 49.5887 28.9467 48.938 28.584C48.2873 28.2107 47.77 27.6933 47.386 27.032C47.0127 26.3707 46.826 25.592 46.826 24.696C46.826 23.7893 47.0127 23.0053 47.386 22.344C47.77 21.6827 48.2873 21.1707 48.938 20.808C49.5887 20.4453 50.3193 20.264 51.13 20.264C51.8553 20.264 52.49 20.424 53.034 20.744C53.578 21.064 53.9993 21.5493 54.298 22.2C54.5967 22.8507 54.746 23.6827 54.746 24.696C54.746 25.6987 54.602 26.5307 54.314 27.192C54.026 27.8427 53.61 28.328 53.066 28.648C52.5327 28.968 51.8873 29.128 51.13 29.128ZM51.562 27.08C51.9673 27.08 52.3353 26.984 52.666 26.792C52.9967 26.6 53.258 26.328 53.45 25.976C53.6527 25.6133 53.754 25.1867 53.754 24.696C53.754 24.1947 53.6527 23.768 53.45 23.416C53.258 23.064 52.9967 22.792 52.666 22.6C52.3353 22.408 51.9673 22.312 51.562 22.312C51.146 22.312 50.7727 22.408 50.442 22.6C50.1113 22.792 49.8447 23.064 49.642 23.416C49.45 23.768 49.354 24.1947 49.354 24.696C49.354 25.1867 49.45 25.6133 49.642 25.976C49.8447 26.328 50.1113 26.6 50.442 26.792C50.7727 26.984 51.146 27.08 51.562 27.08ZM53.818 29V27.24L53.866 24.68L53.706 22.136V17.128H56.202V29H53.818ZM66.5954 29.128C65.582 29.128 64.7927 28.872 64.2274 28.36C63.662 27.8373 63.3794 27.064 63.3794 26.04V18.488H65.8754V26.008C65.8754 26.3707 65.9714 26.6533 66.1634 26.856C66.3554 27.048 66.6167 27.144 66.9474 27.144C67.342 27.144 67.678 27.0373 67.9554 26.824L68.6274 28.584C68.3714 28.7653 68.062 28.904 67.6994 29C67.3474 29.0853 66.9794 29.128 66.5954 29.128ZM62.0514 22.504V20.584H68.0194V22.504H62.0514ZM73.8749 29.128C72.9575 29.128 72.1415 28.936 71.4269 28.552C70.7229 28.168 70.1629 27.6453 69.7469 26.984C69.3415 26.312 69.1389 25.5493 69.1389 24.696C69.1389 23.832 69.3415 23.0693 69.7469 22.408C70.1629 21.736 70.7229 21.2133 71.4269 20.84C72.1415 20.456 72.9575 20.264 73.8749 20.264C74.7815 20.264 75.5922 20.456 76.3069 20.84C77.0215 21.2133 77.5815 21.7307 77.9869 22.392C78.3922 23.0533 78.5949 23.8213 78.5949 24.696C78.5949 25.5493 78.3922 26.312 77.9869 26.984C77.5815 27.6453 77.0215 28.168 76.3069 28.552C75.5922 28.936 74.7815 29.128 73.8749 29.128ZM73.8749 27.08C74.2909 27.08 74.6642 26.984 74.9949 26.792C75.3255 26.6 75.5869 26.328 75.7789 25.976C75.9709 25.6133 76.0669 25.1867 76.0669 24.696C76.0669 24.1947 75.9709 23.768 75.7789 23.416C75.5869 23.064 75.3255 22.792 74.9949 22.6C74.6642 22.408 74.2909 22.312 73.8749 22.312C73.4589 22.312 73.0855 22.408 72.7549 22.6C72.4242 22.792 72.1575 23.064 71.9549 23.416C71.7629 23.768 71.6669 24.1947 71.6669 24.696C71.6669 25.1867 71.7629 25.6133 71.9549 25.976C72.1575 26.328 72.4242 26.6 72.7549 26.792C73.0855 26.984 73.4589 27.08 73.8749 27.08ZM90.3625 29.192C89.4985 29.192 88.6932 29.0533 87.9465 28.776C87.2105 28.488 86.5705 28.0827 86.0265 27.56C85.4825 27.0373 85.0558 26.424 84.7465 25.72C84.4478 25.016 84.2985 24.2427 84.2985 23.4C84.2985 22.5573 84.4478 21.784 84.7465 21.08C85.0558 20.376 85.4825 19.7627 86.0265 19.24C86.5812 18.7173 87.2265 18.3173 87.9625 18.04C88.6985 17.752 89.5038 17.608 90.3785 17.608C91.3492 17.608 92.2238 17.7787 93.0025 18.12C93.7918 18.4507 94.4532 18.9413 94.9865 19.592L93.3225 21.128C92.9385 20.6907 92.5118 20.3653 92.0425 20.152C91.5732 19.928 91.0612 19.816 90.5065 19.816C89.9838 19.816 89.5038 19.9013 89.0665 20.072C88.6292 20.2427 88.2505 20.488 87.9305 20.808C87.6105 21.128 87.3598 21.5067 87.1785 21.944C87.0078 22.3813 86.9225 22.8667 86.9225 23.4C86.9225 23.9333 87.0078 24.4187 87.1785 24.856C87.3598 25.2933 87.6105 25.672 87.9305 25.992C88.2505 26.312 88.6292 26.5573 89.0665 26.728C89.5038 26.8987 89.9838 26.984 90.5065 26.984C91.0612 26.984 91.5732 26.8773 92.0425 26.664C92.5118 26.44 92.9385 26.104 93.3225 25.656L94.9865 27.192C94.4532 27.8427 93.7918 28.3387 93.0025 28.68C92.2238 29.0213 91.3438 29.192 90.3625 29.192ZM101.81 29V27.32L101.65 26.952V23.944C101.65 23.4107 101.485 22.9947 101.154 22.696C100.834 22.3973 100.338 22.248 99.666 22.248C99.2073 22.248 98.754 22.3227 98.306 22.472C97.8687 22.6107 97.4953 22.8027 97.186 23.048L96.29 21.304C96.7593 20.9733 97.3247 20.7173 97.986 20.536C98.6473 20.3547 99.3193 20.264 100.002 20.264C101.314 20.264 102.333 20.5733 103.058 21.192C103.783 21.8107 104.146 22.776 104.146 24.088V29H101.81ZM99.186 29.128C98.514 29.128 97.938 29.016 97.458 28.792C96.978 28.5573 96.61 28.2427 96.354 27.848C96.098 27.4533 95.97 27.0107 95.97 26.52C95.97 26.008 96.0927 25.56 96.338 25.176C96.594 24.792 96.994 24.4933 97.538 24.28C98.082 24.056 98.7913 23.944 99.666 23.944H101.954V25.4H99.938C99.3513 25.4 98.946 25.496 98.722 25.688C98.5087 25.88 98.402 26.12 98.402 26.408C98.402 26.728 98.5247 26.984 98.77 27.176C99.026 27.3573 99.3727 27.448 99.81 27.448C100.226 27.448 100.599 27.352 100.93 27.16C101.261 26.9573 101.501 26.664 101.65 26.28L102.034 27.432C101.853 27.9867 101.522 28.408 101.042 28.696C100.562 28.984 99.9433 29.128 99.186 29.128ZM106.421 29V20.392H108.805V22.824L108.469 22.12C108.725 21.512 109.136 21.0533 109.701 20.744C110.266 20.424 110.954 20.264 111.765 20.264V22.568C111.658 22.5573 111.562 22.552 111.477 22.552C111.392 22.5413 111.301 22.536 111.205 22.536C110.522 22.536 109.968 22.7333 109.541 23.128C109.125 23.512 108.917 24.1147 108.917 24.936V29H106.421ZM117.082 29.128C116.069 29.128 115.279 28.872 114.714 28.36C114.149 27.8373 113.866 27.064 113.866 26.04V18.488H116.362V26.008C116.362 26.3707 116.458 26.6533 116.65 26.856C116.842 27.048 117.103 27.144 117.434 27.144C117.829 27.144 118.165 27.0373 118.442 26.824L119.114 28.584C118.858 28.7653 118.549 28.904 118.186 29C117.834 29.0853 117.466 29.128 117.082 29.128ZM112.538 22.504V20.584H118.506V22.504H112.538Z" fill="#157A8C"/>
</g>
<defs>
<filter id="filter0_d_1189_1209" x="0" y="0" width="146" height="56" filterUnits="userSpaceOnUse" color-interpolation-filters="sRGB">
<feFlood flood-opacity="0" result="BackgroundImageFix"/>
<feColorMatrix in="SourceAlpha" type="matrix" values="0 0 0 0 0 0 0 0 0 0 0 0 0 0 0 0 0 0 127 0" result="hardAlpha"/>
<feOffset dy="4"/>
<feGaussianBlur stdDeviation="2"/>
<feComposite in2="hardAlpha" operator="out"/>
<feColorMatrix type="matrix" values="0 0 0 0 0 0 0 0 0 0 0 0 0 0 0 0 0 0 0.25 0"/>
<feBlend mode="normal" in2="BackgroundImageFix" result="effect1_dropShadow_1189_1209"/>
<feBlend mode="normal" in="SourceGraphic" in2="effect1_dropShadow_1189_1209" result="shape"/>
</filter>
<filter id="filter1_d_1189_1209" x="18.8564" y="17.1279" width="104.258" height="20.0645" filterUnits="userSpaceOnUse" color-interpolation-filters="sRGB">
<feFlood flood-opacity="0" result="BackgroundImageFix"/>
<feColorMatrix in="SourceAlpha" type="matrix" values="0 0 0 0 0 0 0 0 0 0 0 0 0 0 0 0 0 0 127 0" result="hardAlpha"/>
<feOffset dy="4"/>
<feGaussianBlur stdDeviation="2"/>
<feComposite in2="hardAlpha" operator="out"/>
<feColorMatrix type="matrix" values="0 0 0 0 0 0 0 0 0 0 0 0 0 0 0 0 0 0 0.25 0"/>
<feBlend mode="normal" in2="BackgroundImageFix" result="effect1_dropShadow_1189_1209"/>
<feBlend mode="normal" in="SourceGraphic" in2="effect1_dropShadow_1189_1209" result="shape"/>
</filter>
</defs>
</svg>
