<svg width="25" height="26" viewBox="0 0 25 26" fill="none" xmlns="http://www.w3.org/2000/svg">
<path d="M12.4972 0.0166107C13.97 0.0166107 15.4428 -0.0070335 16.915 0.0237036C18.1643 0.0497119 19.3925 0.24773 20.5701 0.692235C22.6161 1.4648 23.892 2.94491 24.5069 5.03267C24.8079 6.05527 24.9761 7.10328 24.9832 8.16489C25.0037 11.108 25.0078 14.051 24.982 16.9941C24.9708 18.2402 24.7639 19.4673 24.3329 20.6447C23.551 22.7827 22.0176 24.0849 19.864 24.6908C18.8081 24.9881 17.7281 25.1329 16.6339 25.1365C13.8072 25.146 10.9798 25.1572 8.15301 25.1264C6.77549 25.1117 5.42207 24.8811 4.13979 24.3379C2.24371 23.534 1.07725 22.0876 0.495786 20.1299C0.192413 19.1079 0.0242629 18.0599 0.0166198 16.9983C-0.00395785 14.0463 -0.0074843 11.0938 0.0177968 8.14184C0.0283796 6.89521 0.237094 5.66869 0.6704 4.49181C1.43295 2.42119 2.90572 1.1261 4.99229 0.504266C6.32983 0.105866 7.70148 -0.00289725 9.08782 5.82344e-05C10.2243 0.00242263 11.3602 5.82344e-05 12.4967 5.82344e-05V0.016019L12.4972 0.0166107ZM12.4978 1.76921C12.4978 1.76448 12.4978 1.76035 12.4978 1.75562C11.3525 1.75562 10.2067 1.7568 9.06137 1.75562C7.95018 1.75385 6.84721 1.82241 5.76307 2.0955C3.89403 2.56542 2.66466 3.70092 2.13611 5.57943C1.89447 6.43711 1.76337 7.3149 1.75807 8.20272C1.74102 10.9998 1.74396 13.7969 1.7469 16.594C1.74808 17.5379 1.85097 18.4725 2.08555 19.3887C2.53003 21.1247 3.54656 22.3394 5.26979 22.9081C6.21048 23.2184 7.18057 23.3679 8.16418 23.3756C10.8369 23.3963 13.5097 23.3892 16.1824 23.3916C17.2854 23.3928 18.3783 23.3011 19.446 22.9985C21.1734 22.5085 22.3116 21.4149 22.829 19.6753C23.0971 18.7757 23.2341 17.8536 23.2405 16.9202C23.2587 14.1326 23.2723 11.3438 23.2405 8.5562C23.2311 7.71211 23.1282 6.85857 22.9642 6.02985C22.5479 3.93086 21.3039 2.57134 19.2038 2.10023C18.4283 1.92586 17.6269 1.81118 16.8338 1.7834C15.3899 1.73375 13.9436 1.76921 12.4978 1.76921Z" fill="#838383"/>
<path d="M15.9743 9.78553C14.9931 9.78553 14.0118 9.78671 13.0305 9.78553C12.4538 9.78494 12.0587 9.42555 12.061 8.90834C12.0634 8.40472 12.4567 8.03351 13.0129 8.03233C15.0025 8.02819 16.992 8.02819 18.9816 8.03292C19.4719 8.0341 19.8353 8.3462 19.9058 8.79662C19.9681 9.19206 19.7136 9.61115 19.3197 9.73765C19.2015 9.77548 19.0704 9.78316 18.9451 9.78375C17.9551 9.7873 16.9644 9.78553 15.9743 9.78553Z" fill="#838383"/>
<path d="M16 16.231C17.0172 16.231 18.0349 16.2228 19.052 16.2352C19.48 16.2405 19.7963 16.5213 19.8916 16.9232C19.9751 17.2767 19.8128 17.6846 19.4753 17.8524C19.3042 17.9375 19.0937 17.9754 18.9009 17.9766C17.4205 17.9866 15.9395 17.9819 14.4591 17.9819C13.9505 17.9819 13.4414 17.9901 12.9334 17.9777C12.5171 17.9677 12.192 17.7052 12.0874 17.3263C11.9898 16.9723 12.1297 16.5697 12.4625 16.3782C12.6194 16.2878 12.8193 16.2435 13.0028 16.2334C13.4014 16.2121 13.8018 16.2263 14.2016 16.2263C14.8013 16.2263 15.4004 16.2263 16 16.2263C16 16.2275 16 16.2293 16 16.2305V16.231Z" fill="#838383"/>
<path d="M6.79784 16.7809C7.48513 16.0882 8.12892 15.445 8.76624 14.796C9.01728 14.5407 9.31007 14.4325 9.65637 14.5182C10.3054 14.6796 10.5271 15.4705 10.0562 15.9764C9.65284 16.4097 9.22483 16.8193 8.80798 17.2396C8.37762 17.6723 7.9496 18.1073 7.51688 18.5371C7.06476 18.9869 6.58089 18.9869 6.13406 18.5418C5.87596 18.2847 5.61669 18.0287 5.36387 17.7663C4.99465 17.3833 4.98642 16.8418 5.33859 16.4931C5.68195 16.1532 6.21461 16.1632 6.58501 16.5208C6.65674 16.59 6.71318 16.6757 6.79843 16.7809H6.79784Z" fill="#838383"/>
<path d="M6.82725 8.55585C7.47927 7.89974 8.10247 7.26076 8.74156 6.63715C8.87913 6.50297 9.05963 6.38298 9.2413 6.33037C9.61581 6.22161 9.99091 6.3948 10.1832 6.7134C10.3819 7.04264 10.359 7.46823 10.0791 7.75492C9.19368 8.66166 8.30178 9.56131 7.39754 10.4486C7.06771 10.7719 6.57267 10.7601 6.23461 10.445C5.91478 10.1471 5.60494 9.83676 5.30921 9.51462C4.98585 9.16232 5.0076 8.62501 5.33625 8.3005C5.65432 7.98604 6.17758 7.97303 6.5274 8.27331C6.62323 8.35547 6.71143 8.4465 6.82725 8.55645V8.55585Z" fill="#838383"/>
</svg>
