<svg width="31" height="34" viewBox="0 0 31 34" fill="none" xmlns="http://www.w3.org/2000/svg">
<path id="Vector" d="M6.88889 17H10.3333V20.4H6.88889V17ZM31 6.8V30.6C31 32.487 29.4672 34 27.5556 34H3.44444C1.53278 34 0 32.47 0 30.6V6.8C0 4.93 1.55 3.4 3.44444 3.4H5.16667V0H8.61111V3.4H22.3889V0H25.8333V3.4H27.5556C29.4672 3.4 31 4.93 31 6.8ZM3.44444 10.2H27.5556V6.8H3.44444V10.2ZM27.5556 30.6V13.6H3.44444V30.6H27.5556ZM20.6667 20.4V17H24.1111V20.4H20.6667ZM13.7778 20.4V17H17.2222V20.4H13.7778ZM6.88889 23.8H10.3333V27.2H6.88889V23.8ZM20.6667 27.2V23.8H24.1111V27.2H20.6667ZM13.7778 27.2V23.8H17.2222V27.2H13.7778Z" fill="#094953"/>
</svg>
