<svg width="31" height="35" viewBox="0 0 31 35" fill="none" xmlns="http://www.w3.org/2000/svg">
<path id="Vector" d="M3.46186 35C1.18412 35 0.269581 30.8665 0.07977 29.2201C-0.124575 27.6217 0.0651569 25.9967 0.631947 24.4911C0.881058 23.7746 1.30954 23.1363 1.87529 22.6388C2.44104 22.1413 3.12458 21.8018 3.85873 21.6537C5.87763 21.3034 7.30984 22.5294 9.13893 22.9498C9.48252 23.0617 9.84882 23.0813 10.2021 23.0068C10.5554 22.9322 10.8836 22.766 11.1548 22.5243C11.4259 22.2826 11.6307 21.9737 11.7492 21.6277C11.8677 21.2817 11.8958 20.9105 11.8308 20.5502C11.0716 17.5377 5.67057 17.4851 3.46186 17.4851C3.46186 14.2274 6.98199 13.807 9.5013 14.0522C10.9959 14.1987 12.4675 14.5281 13.8842 15.033C14.747 15.3308 15.7478 16.0839 16.6969 16.0139C18.1291 15.8913 18.4224 14.385 17.8012 13.2816C16.3 10.6894 12.0379 10.4792 9.5013 10.4792C9.5013 6.9762 12.4865 6.31064 15.3509 6.83608C16.83 7.13133 18.2713 7.59551 19.6476 8.21976C20.5276 8.60509 21.5802 9.34071 22.5465 9.00793C25.0313 8.23727 22.443 5.53998 21.3386 4.89193C20.5635 4.4578 19.7412 4.11688 18.8883 3.87607C17.9565 3.59583 16.8176 3.70092 17.6632 2.59749C18.9853 1.4135 20.6256 0.657247 22.3739 0.425641C25.6352 -0.345014 30.1389 -0.485133 30.9327 3.68341C31.1972 5.88424 30.6769 8.10848 29.466 9.95373C26.2513 15.5351 22.2715 20.6244 17.6459 25.0691C15.1959 27.6183 12.5409 29.9559 9.70836 32.0575C7.98281 33.3186 5.70508 35 3.46186 35Z" fill="#094953"/>
</svg>
