<svg width="158" height="48" viewBox="0 0 158 48" fill="none" xmlns="http://www.w3.org/2000/svg">
<rect width="158" height="48" rx="4" fill="#157A8C"/>
<path d="M52.328 30V18.8H57.8C59.208 18.8 60.264 19.0667 60.968 19.6C61.6827 20.1333 62.04 20.8373 62.04 21.712C62.04 22.2987 61.896 22.8107 61.608 23.248C61.32 23.6747 60.9253 24.0053 60.424 24.24C59.9227 24.4747 59.3467 24.592 58.696 24.592L59 23.936C59.704 23.936 60.328 24.0533 60.872 24.288C61.416 24.512 61.8373 24.848 62.136 25.296C62.4453 25.744 62.6 26.2933 62.6 26.944C62.6 27.904 62.2213 28.656 61.464 29.2C60.7067 29.7333 59.592 30 58.12 30H52.328ZM54.904 28.048H57.928C58.6 28.048 59.1067 27.9413 59.448 27.728C59.8 27.504 59.976 27.152 59.976 26.672C59.976 26.2027 59.8 25.856 59.448 25.632C59.1067 25.3973 58.6 25.28 57.928 25.28H54.712V23.392H57.48C58.1093 23.392 58.5893 23.2853 58.92 23.072C59.2613 22.848 59.432 22.512 59.432 22.064C59.432 21.6267 59.2613 21.3013 58.92 21.088C58.5893 20.864 58.1093 20.752 57.48 20.752H54.904V28.048ZM68.0344 30.128C67.3197 30.128 66.6797 29.9893 66.1144 29.712C65.5597 29.4347 65.1277 29.0133 64.8184 28.448C64.509 27.872 64.3544 27.1413 64.3544 26.256V21.392H66.8504V25.888C66.8504 26.6027 66.9997 27.1307 67.2984 27.472C67.6077 27.8027 68.0397 27.968 68.5944 27.968C68.9784 27.968 69.3197 27.888 69.6184 27.728C69.917 27.5573 70.1517 27.3013 70.3224 26.96C70.493 26.608 70.5784 26.1707 70.5784 25.648V21.392H73.0744V30H70.7064V27.632L71.1384 28.32C70.8504 28.9173 70.4237 29.3707 69.8584 29.68C69.3037 29.9787 68.6957 30.128 68.0344 30.128ZM76.4907 33.232C76.0427 33.232 75.6001 33.1627 75.1627 33.024C74.7254 32.8853 74.3681 32.6933 74.0907 32.448L75.0027 30.672C75.1947 30.8427 75.4134 30.976 75.6587 31.072C75.9147 31.168 76.1654 31.216 76.4107 31.216C76.7627 31.216 77.0401 31.1307 77.2427 30.96C77.4561 30.8 77.6481 30.528 77.8187 30.144L78.2667 29.088L78.4587 28.816L81.5468 21.392H83.9467L80.0587 30.528C79.7814 31.2213 79.4614 31.7653 79.0987 32.16C78.7467 32.5547 78.3521 32.832 77.9147 32.992C77.4881 33.152 77.0134 33.232 76.4907 33.232ZM77.9627 30.336L74.1227 21.392H76.6987L79.6747 28.592L77.9627 30.336ZM94.7605 21.264C95.4432 21.264 96.0512 21.4027 96.5845 21.68C97.1285 21.9467 97.5552 22.3627 97.8645 22.928C98.1738 23.4827 98.3285 24.1973 98.3285 25.072V30H95.8325V25.456C95.8325 24.7627 95.6778 24.2507 95.3685 23.92C95.0698 23.5893 94.6432 23.424 94.0885 23.424C93.6938 23.424 93.3365 23.5093 93.0165 23.68C92.7072 23.84 92.4618 24.0907 92.2805 24.432C92.1098 24.7733 92.0245 25.2107 92.0245 25.744V30H89.5285V21.392H91.9125V23.776L91.4645 23.056C91.7738 22.48 92.2165 22.0373 92.7925 21.728C93.3685 21.4187 94.0245 21.264 94.7605 21.264ZM104.766 30.128C103.848 30.128 103.032 29.936 102.318 29.552C101.614 29.168 101.054 28.6453 100.638 27.984C100.232 27.312 100.03 26.5493 100.03 25.696C100.03 24.832 100.232 24.0693 100.638 23.408C101.054 22.736 101.614 22.2133 102.318 21.84C103.032 21.456 103.848 21.264 104.766 21.264C105.672 21.264 106.483 21.456 107.198 21.84C107.912 22.2133 108.472 22.7307 108.878 23.392C109.283 24.0533 109.486 24.8213 109.486 25.696C109.486 26.5493 109.283 27.312 108.878 27.984C108.472 28.6453 107.912 29.168 107.198 29.552C106.483 29.936 105.672 30.128 104.766 30.128ZM104.766 28.08C105.182 28.08 105.555 27.984 105.886 27.792C106.216 27.6 106.478 27.328 106.67 26.976C106.862 26.6133 106.958 26.1867 106.958 25.696C106.958 25.1947 106.862 24.768 106.67 24.416C106.478 24.064 106.216 23.792 105.886 23.6C105.555 23.408 105.182 23.312 104.766 23.312C104.35 23.312 103.976 23.408 103.646 23.6C103.315 23.792 103.048 24.064 102.846 24.416C102.654 24.768 102.558 25.1947 102.558 25.696C102.558 26.1867 102.654 26.6133 102.846 26.976C103.048 27.328 103.315 27.6 103.646 27.792C103.976 27.984 104.35 28.08 104.766 28.08ZM112.904 30L109.8 21.392H112.152L114.728 28.8H113.608L116.296 21.392H118.408L121.016 28.8H119.896L122.552 21.392H124.76L121.64 30H119.224L116.936 23.648H117.672L115.304 30H112.904Z" fill="#E2EFF1"/>
<path d="M33 22.0144H35V19.009H38V17.0054H35V14H33V17.0054H30V19.009H33M29 31.0306C27.9 31.0306 27 31.9322 27 33.0342C27 34.1362 27.9 35.0378 29 35.0378C30.1 35.0378 31 34.1362 31 33.0342C31 31.9322 30.1 31.0306 29 31.0306ZM39 31.0306C37.9 31.0306 37 31.9322 37 33.0342C37 34.1362 37.9 35.0378 39 35.0378C40.1 35.0378 41 34.1362 41 33.0342C41 31.9322 40.1 31.0306 39 31.0306ZM29.2 27.8248V27.7246L30.1 26.0216H37.5C38.2 26.0216 38.9 25.6209 39.2 25.0198L43.1 18.0072L41.4 17.0054L37.5 24.018H30.5L26.3 15.0018H23V17.0054H25L28.6 24.6191L27.2 27.0234C27.1 27.3239 27 27.6245 27 28.0252C27 29.1272 27.9 30.0288 29 30.0288H41V28.0252H29.4C29.3 28.0252 29.2 27.925 29.2 27.8248Z" fill="white"/>
</svg>
