<svg width="74" height="60" viewBox="0 0 74 60" fill="none" xmlns="http://www.w3.org/2000/svg">
<g filter="url(#filter0_d_1177_1189)">
<g filter="url(#filter1_d_1177_1189)">
<rect x="4" width="66" height="52" rx="8" fill="#E2EFF1"/>
</g>
</g>
<g filter="url(#filter2_d_1177_1189)">
<path d="M26.2344 24.4161C28.7144 29.29 32.71 33.2856 37.5839 35.7656L41.3728 31.9767C41.855 31.4944 42.5267 31.3567 43.1294 31.5461C45.0583 32.1833 47.125 32.5278 49.2778 32.5278C49.7345 32.5278 50.1726 32.7092 50.4956 33.0322C50.8186 33.3552 51 33.7932 51 34.25V40.2778C51 40.7345 50.8186 41.1726 50.4956 41.4956C50.1726 41.8186 49.7345 42 49.2778 42C41.5128 42 34.0659 38.9154 28.5753 33.4247C23.0846 27.9341 20 20.4872 20 12.7222C20 12.2655 20.1814 11.8274 20.5044 11.5044C20.8274 11.1814 21.2655 11 21.7222 11H27.75C28.2068 11 28.6448 11.1814 28.9678 11.5044C29.2908 11.8274 29.4722 12.2655 29.4722 12.7222C29.4722 14.875 29.8167 16.9417 30.4539 18.8706C30.6433 19.4733 30.5056 20.145 30.0233 20.6272L26.2344 24.4161Z" fill="#157A8C"/>
</g>
<defs>
<filter id="filter0_d_1177_1189" x="0" y="0" width="74" height="60" filterUnits="userSpaceOnUse" color-interpolation-filters="sRGB">
<feFlood flood-opacity="0" result="BackgroundImageFix"/>
<feColorMatrix in="SourceAlpha" type="matrix" values="0 0 0 0 0 0 0 0 0 0 0 0 0 0 0 0 0 0 127 0" result="hardAlpha"/>
<feOffset dy="4"/>
<feGaussianBlur stdDeviation="2"/>
<feComposite in2="hardAlpha" operator="out"/>
<feColorMatrix type="matrix" values="0 0 0 0 0 0 0 0 0 0 0 0 0 0 0 0 0 0 0.25 0"/>
<feBlend mode="normal" in2="BackgroundImageFix" result="effect1_dropShadow_1177_1189"/>
<feBlend mode="normal" in="SourceGraphic" in2="effect1_dropShadow_1177_1189" result="shape"/>
</filter>
<filter id="filter1_d_1177_1189" x="0" y="0" width="74" height="60" filterUnits="userSpaceOnUse" color-interpolation-filters="sRGB">
<feFlood flood-opacity="0" result="BackgroundImageFix"/>
<feColorMatrix in="SourceAlpha" type="matrix" values="0 0 0 0 0 0 0 0 0 0 0 0 0 0 0 0 0 0 127 0" result="hardAlpha"/>
<feOffset dy="4"/>
<feGaussianBlur stdDeviation="2"/>
<feComposite in2="hardAlpha" operator="out"/>
<feColorMatrix type="matrix" values="0 0 0 0 0 0 0 0 0 0 0 0 0 0 0 0 0 0 0.25 0"/>
<feBlend mode="normal" in2="BackgroundImageFix" result="effect1_dropShadow_1177_1189"/>
<feBlend mode="normal" in="SourceGraphic" in2="effect1_dropShadow_1177_1189" result="shape"/>
</filter>
<filter id="filter2_d_1177_1189" x="16" y="11" width="39" height="39" filterUnits="userSpaceOnUse" color-interpolation-filters="sRGB">
<feFlood flood-opacity="0" result="BackgroundImageFix"/>
<feColorMatrix in="SourceAlpha" type="matrix" values="0 0 0 0 0 0 0 0 0 0 0 0 0 0 0 0 0 0 127 0" result="hardAlpha"/>
<feOffset dy="4"/>
<feGaussianBlur stdDeviation="2"/>
<feComposite in2="hardAlpha" operator="out"/>
<feColorMatrix type="matrix" values="0 0 0 0 0 0 0 0 0 0 0 0 0 0 0 0 0 0 0.25 0"/>
<feBlend mode="normal" in2="BackgroundImageFix" result="effect1_dropShadow_1177_1189"/>
<feBlend mode="normal" in="SourceGraphic" in2="effect1_dropShadow_1177_1189" result="shape"/>
</filter>
</defs>
</svg>
