<svg width="22" height="25" viewBox="0 0 22 25" fill="none" xmlns="http://www.w3.org/2000/svg">
<path d="M11 0C4.95 0 0 4.97222 0 11.1111C0.055 14.0972 1.166 16.9028 3.025 18.75C3.025 19.5833 2.563 21.7639 0 25C2.607 24.8472 5.104 23.6111 7.117 21.5278C8.371 21.9861 9.691 22.2222 11 22.2222C17.05 22.2222 22 17.25 22 11.1111C22 4.97222 17.05 0 11 0ZM11 19.4444C6.138 19.4444 2.2 15.7083 2.2 11.1111C2.2 6.51389 6.138 2.77778 11 2.77778C15.862 2.77778 19.8 6.51389 19.8 11.1111C19.8 15.7083 15.862 19.4444 11 19.4444ZM16.5 12.5V9.72222H14.3V12.5H16.5ZM12.1 12.5V9.72222H9.9V12.5H12.1ZM7.7 12.5V9.72222H5.5V12.5H7.7Z" fill="#ADADAD"/>
</svg>
