<svg width="31" height="36" viewBox="0 0 31 36" fill="none" xmlns="http://www.w3.org/2000/svg">
<path id="Vector" d="M15.5 32.5714C12.3027 32.5714 9.23629 31.3071 6.97543 29.0567C4.71458 26.8063 3.44444 23.754 3.44444 20.5714C3.44444 17.3888 4.71458 14.3366 6.97543 12.0861C9.23629 9.83571 12.3027 8.57143 15.5 8.57143C18.6973 8.57143 21.7637 9.83571 24.0246 12.0861C26.2854 14.3366 27.5556 17.3888 27.5556 20.5714C27.5556 23.754 26.2854 26.8063 24.0246 29.0567C21.7637 31.3071 18.6973 32.5714 15.5 32.5714ZM27.6072 10.9543L30.0528 8.52C29.2778 7.64571 28.5028 6.85714 27.6244 6.10286L25.1789 8.57143C22.5094 6.41143 19.1511 5.14286 15.5 5.14286C11.3891 5.14286 7.44666 6.76836 4.53984 9.66178C1.63303 12.5552 0 16.4795 0 20.5714C0 24.6633 1.63303 28.5877 4.53984 31.4811C7.44666 34.3745 11.3891 36 15.5 36C24.1111 36 31 29.0914 31 20.5714C31 16.9371 29.7256 13.5943 27.6072 10.9543ZM13.7778 22.2857H17.2222V12H13.7778M20.6667 0H10.3333V3.42857H20.6667V0Z" fill="#094953"/>
</svg>
