<svg width="30" height="38" viewBox="0 0 30 38" fill="none" xmlns="http://www.w3.org/2000/svg">
<path id="Vector" d="M20.325 27.094C25.9875 28.177 30 30.951 30 34.2V38H0V34.2C0 30.951 4.0125 28.177 9.675 27.094L15 36.1L20.325 27.094ZM7.5 11.4H22.5V15.2C22.5 17.2156 21.7098 19.1487 20.3033 20.574C18.8968 21.9993 16.9891 22.8 15 22.8C13.0109 22.8 11.1032 21.9993 9.6967 20.574C8.29018 19.1487 7.5 17.2156 7.5 15.2V11.4ZM7.5 9.5L8.26875 1.71C8.3625 0.741 9.16875 0 10.1437 0H19.875C20.8313 0 21.6375 0.741 21.7313 1.71L22.5 9.5H7.5ZM15 1.9H13.125V3.8H11.25V5.7H13.125V7.6H15V5.7H16.875V3.8H15V1.9Z" fill="#094953"/>
</svg>
