<svg width="69" height="69" viewBox="0 0 69 69" fill="none" xmlns="http://www.w3.org/2000/svg">
<g id="Group 1393">
<g id="Ellipse 9" filter="url(#filter0_d_1209_1196)">
<circle cx="34.5" cy="30.5" r="30.5" fill="#D9D9D9"/>
</g>
<g id="Vector" filter="url(#filter1_d_1209_1196)">
<path d="M37.9125 32C37.9125 30.62 39.0045 29.5 40.35 29.5C41.6955 29.5 42.7875 30.62 42.7875 32C42.7875 33.38 41.6955 34.5 40.35 34.5C39.0045 34.5 37.9125 33.38 37.9125 32ZM54 30V50H15V30C15 19 23.775 10 34.5 10C45.225 10 54 19 54 30ZM18.9 30C18.9 38.82 25.9005 46 34.5 46C43.0995 46 50.1 38.82 50.1 30C50.1 28.42 49.866 26.9 49.4565 25.48C48.0525 25.82 46.59 26 45.069 26C38.4975 26 32.6865 22.66 29.157 17.54C27.246 22.32 23.5995 26.18 18.9975 28.28C18.9 28.84 18.9 29.42 18.9 30ZM28.65 34.5C29.9955 34.5 31.0875 33.38 31.0875 32C31.0875 30.62 29.9955 29.5 28.65 29.5C27.3045 29.5 26.2125 30.62 26.2125 32C26.2125 33.38 27.3045 34.5 28.65 34.5Z" fill="#094953"/>
</g>
</g>
<defs>
<filter id="filter0_d_1209_1196" x="0" y="0" width="69" height="69" filterUnits="userSpaceOnUse" color-interpolation-filters="sRGB">
<feFlood flood-opacity="0" result="BackgroundImageFix"/>
<feColorMatrix in="SourceAlpha" type="matrix" values="0 0 0 0 0 0 0 0 0 0 0 0 0 0 0 0 0 0 127 0" result="hardAlpha"/>
<feOffset dy="4"/>
<feGaussianBlur stdDeviation="2"/>
<feComposite in2="hardAlpha" operator="out"/>
<feColorMatrix type="matrix" values="0 0 0 0 0 0 0 0 0 0 0 0 0 0 0 0 0 0 0.25 0"/>
<feBlend mode="normal" in2="BackgroundImageFix" result="effect1_dropShadow_1209_1196"/>
<feBlend mode="normal" in="SourceGraphic" in2="effect1_dropShadow_1209_1196" result="shape"/>
</filter>
<filter id="filter1_d_1209_1196" x="11" y="10" width="47" height="48" filterUnits="userSpaceOnUse" color-interpolation-filters="sRGB">
<feFlood flood-opacity="0" result="BackgroundImageFix"/>
<feColorMatrix in="SourceAlpha" type="matrix" values="0 0 0 0 0 0 0 0 0 0 0 0 0 0 0 0 0 0 127 0" result="hardAlpha"/>
<feOffset dy="4"/>
<feGaussianBlur stdDeviation="2"/>
<feComposite in2="hardAlpha" operator="out"/>
<feColorMatrix type="matrix" values="0 0 0 0 0 0 0 0 0 0 0 0 0 0 0 0 0 0 0.25 0"/>
<feBlend mode="normal" in2="BackgroundImageFix" result="effect1_dropShadow_1209_1196"/>
<feBlend mode="normal" in="SourceGraphic" in2="effect1_dropShadow_1209_1196" result="shape"/>
</filter>
</defs>
</svg>
