<svg width="21" height="21" viewBox="0 0 21 21" fill="none" xmlns="http://www.w3.org/2000/svg">
<path id="Path 251" d="M10.1003 0.000834246C7.55268 0.000717418 5.09913 0.963241 3.23133 2.69577C1.36353 4.4283 0.219497 6.80271 0.0284547 9.34315C-0.162587 11.8836 0.613503 14.4025 2.20118 16.3949C3.78887 18.3873 6.07084 19.706 8.58982 20.0869V12.7843H6.08984V10.1276H8.58982V8.36052C8.58982 5.43359 10.0156 4.15017 12.4478 4.15017C13.1406 4.14096 13.8332 4.18282 14.5199 4.27551V6.59423H12.8612C11.8285 6.59423 11.4676 7.57355 11.4676 8.67655V10.1276H14.4937L14.0828 12.7843H11.4676V20.108C14.0064 19.764 16.3196 18.4679 17.9387 16.4824C19.5577 14.4968 20.3617 11.9702 20.1878 9.41409C20.0139 6.858 18.875 4.46357 17.0019 2.71563C15.1288 0.967687 12.6614 -0.00299533 10.0994 6.94366e-06" fill="white"/>
</svg>
