<svg width="22" height="22" viewBox="0 0 22 22" fill="none" xmlns="http://www.w3.org/2000/svg">
<path id="Vector" d="M19.5556 8.55556V19.5556H2.44444V2.44444H13.4444V0H2.44444C1.12444 0 0 1.1 0 2.44444V19.5556C0 20.9 1.12444 22 2.44444 22H19.5556C20.9244 22 22 20.9 22 19.5556V8.55556H19.5556ZM17.1111 8.55556L18.26 6.03778L20.7778 4.88889L18.26 3.74L17.1111 1.22222L15.9622 3.74L13.4444 4.88889L15.9622 6.03778L17.1111 8.55556ZM12.5278 9.47222L11 6.11111L9.47222 9.47222L6.11111 11L9.47222 12.5278L11 15.8889L12.5278 12.5278L15.8889 11L12.5278 9.47222Z" fill="#F9FDFF"/>
</svg>
