<svg width="19" height="19" viewBox="0 0 19 19" fill="none" xmlns="http://www.w3.org/2000/svg">
<rect width="19" height="19" fill="#686B6C"/>
<g clip-path="url(#clip0_0_1)">
<rect width="390" height="844" transform="translate(-125 -604)" fill="#F9FDFF"/>
<g filter="url(#filter0_d_0_1)">
<path d="M207.398 32.8487H-65.7744C-71.9523 32.7962 -77.8594 30.3051 -82.2093 25.918C-86.5593 21.5309 -89 15.603 -89 9.42489C-89 3.24676 -86.5593 -2.68129 -82.2093 -7.06842C-77.8594 -11.4556 -71.9523 -13.9466 -65.7744 -13.9992H207.4C210.493 -14.0255 213.56 -13.439 216.425 -12.2736C219.29 -11.1082 221.896 -9.387 224.093 -7.20927C226.289 -5.03155 228.032 -2.44046 229.222 0.414527C230.412 3.26951 231.024 6.33194 231.024 9.42489C231.024 12.5178 230.412 15.5801 229.222 18.435C228.032 21.29 226.289 23.8813 224.093 26.059C221.896 28.2368 219.29 29.9578 216.425 31.1232C213.56 32.2885 210.493 32.875 207.4 32.8487" fill="white"/>
</g>
<path d="M18.1766 7.38727H17.4362V7.34922H9.16794V11.0242H14.3602C13.9671 12.1393 13.2262 13.0986 12.2466 13.7606C11.267 14.4227 10.1006 14.7525 8.91942 14.7014C7.73819 14.6502 6.60466 14.2209 5.68596 13.4766C4.76725 12.7324 4.112 11.7126 3.81682 10.5677C3.52164 9.42284 3.60214 8.21334 4.04647 7.11768C4.4908 6.02201 5.27544 5.0982 6.28469 4.4823C7.29394 3.86641 8.47439 3.59111 9.65197 3.69699C10.8295 3.80287 11.9419 4.28425 12.8251 5.07031L15.4234 2.47206C13.8781 1.03659 11.8856 0.177214 9.78108 0.0384476C7.67654 -0.100318 5.58843 0.490074 3.86809 1.71022C2.14775 2.93037 0.900187 4.70579 0.335297 6.73784C-0.229592 8.76989 -0.0773304 10.9345 0.766477 12.8674C1.61028 14.8004 3.09413 16.3837 4.96835 17.351C6.84256 18.3183 8.99276 18.6105 11.0571 18.1785C13.1215 17.7465 14.9741 16.6166 16.3031 14.9789C17.6322 13.3413 18.3566 11.2958 18.3545 9.18666C18.3538 8.58247 18.294 7.97978 18.1758 7.38727" fill="#FFC107"/>
<path d="M1.04117 4.91033L4.05958 7.12398C4.38896 6.30467 4.91073 5.57668 5.58078 5.00154C6.25084 4.42639 7.04949 4.02093 7.90925 3.81953C8.76902 3.61813 9.66462 3.62673 10.5204 3.84445C11.3762 4.06217 12.167 4.48262 12.826 5.07041L15.4242 2.47216C14.393 1.50772 13.1529 0.794517 11.8007 0.388085C10.4485 -0.0183464 9.02066 -0.107025 7.62857 0.129036C6.23647 0.365097 4.9177 0.919511 3.77507 1.749C2.63244 2.57849 1.69683 3.65983 1.04117 4.91033Z" fill="#FF3D00"/>
<path d="M9.16795 18.3763C11.4465 18.3761 13.643 17.5258 15.3276 15.9916L12.4846 13.5857C11.7962 14.1073 10.9946 14.4594 10.1448 14.6135C9.29496 14.7676 8.42079 14.7192 7.59311 14.4724C6.76542 14.2257 6.0075 13.7874 5.3808 13.1931C4.75409 12.5988 4.27622 11.8652 3.98589 11.0518L0.990326 13.3594C1.75822 14.8686 2.9286 16.136 4.37198 17.0214C5.81536 17.9068 7.4755 18.3757 9.16881 18.3763" fill="#4CAF50"/>
<path d="M18.1741 7.38729H17.4345V7.35254H9.16626V11.0275H14.3619C13.9996 12.0457 13.347 12.9354 12.4846 13.5868L15.3276 15.9927C16.2942 15.1454 17.0655 14.0984 17.5882 12.9241C18.1109 11.7498 18.3727 10.4762 18.3554 9.19091C18.3547 8.58672 18.2949 7.98403 18.1766 7.39153" fill="#1976D2"/>
</g>
<defs>
<filter id="filter0_d_0_1" x="-95" y="-20" width="332.024" height="58.8496" filterUnits="userSpaceOnUse" color-interpolation-filters="sRGB">
<feFlood flood-opacity="0" result="BackgroundImageFix"/>
<feColorMatrix in="SourceAlpha" type="matrix" values="0 0 0 0 0 0 0 0 0 0 0 0 0 0 0 0 0 0 127 0" result="hardAlpha"/>
<feOffset/>
<feGaussianBlur stdDeviation="3"/>
<feColorMatrix type="matrix" values="0 0 0 0 0 0 0 0 0 0 0 0 0 0 0 0 0 0 0.161 0"/>
<feBlend mode="normal" in2="BackgroundImageFix" result="effect1_dropShadow_0_1"/>
<feBlend mode="normal" in="SourceGraphic" in2="effect1_dropShadow_0_1" result="shape"/>
</filter>
<clipPath id="clip0_0_1">
<rect width="390" height="844" fill="white" transform="translate(-125 -604)"/>
</clipPath>
</defs>
</svg>
