<svg width="35" height="33" viewBox="0 0 35 33" fill="none" xmlns="http://www.w3.org/2000/svg">
<path id="Vector" d="M21 10.0711L26.25 15.3624V33H22.75V22.4174H10.5L7 27.7087V33H3.5V22.4174L5.25 20.6537V15.3624L0 10.0711L1.75 8.30732L5.25 11.8348H8.75V17.1261C8.75 17.5939 8.93438 18.0425 9.26256 18.3733C9.59075 18.7041 10.0359 18.8899 10.5 18.8899H17.5C17.9641 18.8899 18.4092 18.7041 18.7374 18.3733C19.0656 18.0425 19.25 17.5939 19.25 17.1261V11.8348L21 10.0711ZM29.75 4.7798V1.25227L22.75 8.30732L28 13.5986L29.75 11.8348L31.5 13.5986L35 10.0711L29.75 4.7798ZM16.625 12.7167L4.375 0.37039C3.9025 -0.123463 3.1325 -0.123463 2.625 0.37039C2.135 0.846606 2.135 1.62266 2.625 2.13415L14.875 14.4805C15.3475 14.9743 16.1175 14.9743 16.625 14.4805C17.115 14.0043 17.115 13.2282 16.625 12.7167Z" fill="#094953"/>
</svg>
