<svg width="25" height="26" viewBox="0 0 25 26" fill="none" xmlns="http://www.w3.org/2000/svg">
<path d="M24.9984 13.7618C24.9978 12.8276 24.9972 11.8934 24.9966 10.9592C24.9966 9.4405 24.3929 8.19012 23.2026 7.24324L22.7273 6.8653C20.3238 4.95365 17.8381 2.97623 15.3863 1.04093C14.5237 0.360058 13.5279 0 12.5075 0C11.4871 0 10.4552 0.371021 9.5719 1.07267L8.15259 2.2013C6.09508 3.83714 3.96755 5.52894 1.86929 7.18496C0.624452 8.16646 -0.00456642 9.46358 2.4954e-05 11.0394C0.00576418 13.0445 0.00519025 15.0831 0.00461633 17.0548C0.00461633 18.2532 0.00404241 19.4517 0.00461633 20.6496C0.00461633 20.8948 0.00461634 21.1723 0.0493823 21.4418C0.432762 23.7781 2.27735 25.3511 4.64019 25.3562C5.67612 25.3586 6.71205 25.3591 7.74798 25.3591C8.53712 25.3591 9.32626 25.3591 10.1154 25.3586C10.9045 25.3586 11.6937 25.358 12.4828 25.358C13.272 25.358 14.0766 25.358 14.8732 25.3586C15.6698 25.3586 16.467 25.3591 17.2636 25.3591C18.2938 25.3591 19.324 25.3586 20.3536 25.3562C21.6363 25.3534 22.8129 24.8825 23.6651 24.0314C24.5186 23.1786 24.9909 22.0009 24.9949 20.7148C25.0018 18.3969 25.0001 16.0404 24.9989 13.7618H24.9984ZM1.79124 11.0152C1.78951 10.025 2.16658 9.2449 2.94367 8.63038C4.72914 7.21785 6.54216 5.77878 8.29492 4.38703C9.09497 3.75174 9.89502 3.11702 10.6956 2.48173C11.2541 2.03859 11.8802 1.80432 12.5052 1.80432C13.1302 1.80432 13.7392 2.03339 14.2872 2.46731C16.0865 3.8908 17.9139 5.34141 19.681 6.74412C20.4816 7.37999 21.2822 8.01528 22.0828 8.65057C22.841 9.25182 23.2089 10.0181 23.2083 10.9915C23.2066 12.7728 23.2066 14.5534 23.2071 16.3347C23.2071 17.7674 23.2071 19.2007 23.2071 20.6334C23.206 22.3806 22.0318 23.5554 20.2842 23.556C19.2304 23.5565 18.1767 23.5565 17.123 23.5565H12.4978H7.83808C6.8056 23.5565 5.77254 23.5565 4.73948 23.5565C3.86884 23.5565 3.12962 23.2755 2.60161 22.7458C2.07361 22.2156 1.79468 21.4735 1.79411 20.5994C1.79411 19.51 1.79411 18.42 1.79411 17.3306C1.79468 15.2603 1.79525 13.1201 1.79124 11.0146V11.0152Z" fill="#4E9AA8"/>
<path d="M9.14318 21.0017C9.30273 21.0576 9.47146 21.0657 9.63044 21.0663C10.1292 21.0686 10.6279 21.0686 11.1267 21.0686H12.4903H13.8287C14.3355 21.0686 14.8428 21.0686 15.3496 21.0669C15.4793 21.0669 15.6331 21.0611 15.7869 21.0219C16.1852 20.9203 16.4572 20.5591 16.4492 20.1431C16.4412 19.7409 16.1777 19.4028 15.7938 19.3018C15.675 19.2706 15.5441 19.2556 15.3829 19.2556C14.4376 19.2545 13.4924 19.2539 12.5471 19.2539C11.6019 19.2539 10.5877 19.2545 9.60805 19.2556C9.46974 19.2556 9.30674 19.2631 9.14892 19.3185C8.77242 19.4495 8.55605 19.7553 8.55433 20.1575C8.55261 20.5614 8.76783 20.869 9.14432 21.0017H9.14318Z" fill="#4E9AA8"/>
</svg>
