<svg width="31" height="36" viewBox="0 0 31 36" fill="none" xmlns="http://www.w3.org/2000/svg">
<path id="Vector" d="M27.5556 3.6H25.8333V0H22.3889V3.6H8.61111V0H5.16667V3.6H3.44444C1.55 3.6 0 5.22 0 7.2V32.4C0 34.398 1.55 36 3.44444 36H27.5556C29.4672 36 31 34.398 31 32.4V7.2C31 5.22 29.4672 3.6 27.5556 3.6ZM27.5556 32.4H3.44444V14.4H27.5556V32.4ZM3.44444 10.8V7.2H27.5556V10.8H3.44444ZM13.02 29.628L23.25 18.954L21.4072 17.046L13.02 25.812L9.38611 22.014L7.56056 23.922L13.02 29.628Z" fill="#094953"/>
</svg>
