<svg width="28" height="28" viewBox="0 0 28 28" fill="none" xmlns="http://www.w3.org/2000/svg">
<path d="M14.1312 0C21.7379 0 27.9059 5.56889 27.9059 12.4444C27.9059 19.32 18.7227 28 14.1312 28C9.53959 28 0.356445 19.32 0.356445 12.4444C0.356445 5.56889 6.52446 0 14.1312 0ZM11.5446 12.3356C9.98344 9.78444 7.19789 8.68 5.33065 9.86222C3.46341 11.0444 3.21852 14.0778 4.77966 16.6289C6.3561 19.18 9.14165 20.2844 11.0089 19.1022C12.8761 17.8889 13.1057 14.8867 11.5446 12.3356ZM16.7177 12.3356C15.1566 14.8867 15.3862 17.8889 17.2534 19.1022C19.1207 20.2844 21.9062 19.18 23.4827 16.6289C25.0438 14.0778 24.7989 11.0444 22.9317 9.86222C21.0644 8.68 18.2789 9.78444 16.7177 12.3356ZM14.1312 22.9444C11.0701 22.9444 10.3048 21.7778 10.3048 21.7778C10.3048 21.8244 11.0701 24.8889 14.1312 24.8889C17.1922 24.8889 17.9575 21.7778 17.9575 21.7778C17.9575 21.7778 17.1922 22.9444 14.1312 22.9444Z" fill="#F0F5F6" fill-opacity="0.63"/>
</svg>
