<svg width="13" height="16" viewBox="0 0 13 16" fill="none" xmlns="http://www.w3.org/2000/svg">
<path id="Vector" d="M6.10145 5.50643C6.10145 4.46631 6.9054 3.62216 7.89599 3.62216C8.68559 3.62216 9.35316 4.15729 9.59722 4.89592C9.65465 5.09189 9.69054 5.29539 9.69054 5.50643C9.69054 6.54655 8.88658 7.3907 7.89599 7.3907C7.11357 7.3907 6.46036 6.87064 6.20194 6.13954C6.13734 5.94358 6.10145 5.725 6.10145 5.50643ZM1.43564 5.50643C1.43564 8.89812 5.08215 13.541 5.74254 14.4077L5.02472 15.3046C5.02472 15.3046 0 9.4634 0 5.50643C0 3.11717 1.51459 1.09723 3.58909 0.449044C2.2683 1.69266 1.43564 3.49403 1.43564 5.50643ZM7.89599 0.230469C10.6668 0.230469 12.9207 2.58958 12.9207 5.50643C12.9207 9.4634 7.89599 15.3046 7.89599 15.3046C7.89599 15.3046 2.87127 9.4634 2.87127 5.50643C2.87127 2.58958 5.12522 0.230469 7.89599 0.230469ZM7.89599 1.73789C5.91482 1.73789 4.30691 3.42619 4.30691 5.50643C4.30691 6.26014 4.30691 7.76755 7.89599 12.8249C11.4851 7.76755 11.4851 6.26014 11.4851 5.50643C11.4851 3.42619 9.87717 1.73789 7.89599 1.73789Z" fill="#0E6F7D" fill-opacity="0.8"/>
</svg>
