<svg width="26" height="32" viewBox="0 0 26 32" fill="none" xmlns="http://www.w3.org/2000/svg">
<path id="Vector" d="M12.2778 11.2C12.2778 8.992 13.8956 7.2 15.8889 7.2C17.4778 7.2 18.8211 8.336 19.3122 9.904C19.4278 10.32 19.5 10.752 19.5 11.2C19.5 13.408 17.8822 15.2 15.8889 15.2C14.3144 15.2 13 14.096 12.48 12.544C12.35 12.128 12.2778 11.664 12.2778 11.2ZM2.88889 11.2C2.88889 18.4 10.2267 28.256 11.5556 30.096L10.1111 32C10.1111 32 0 19.6 0 11.2C0 6.128 3.04778 1.84 7.22222 0.464C4.56444 3.104 2.88889 6.928 2.88889 11.2ZM15.8889 0C21.4644 0 26 5.008 26 11.2C26 19.6 15.8889 32 15.8889 32C15.8889 32 5.77778 19.6 5.77778 11.2C5.77778 5.008 10.3133 0 15.8889 0ZM15.8889 3.2C11.9022 3.2 8.66667 6.784 8.66667 11.2C8.66667 12.8 8.66667 16 15.8889 26.736C23.1111 16 23.1111 12.8 23.1111 11.2C23.1111 6.784 19.8756 3.2 15.8889 3.2Z" fill="#094953"/>
</svg>
