<svg width="12" height="17" viewBox="0 0 12 17" fill="none" xmlns="http://www.w3.org/2000/svg">
<g id="Group 825">
<path id="Path 544" d="M5.79974 0.796748C6.92553 0.84601 8.00806 1.24474 8.89668 1.93752C9.78531 2.6303 10.4359 3.58277 10.7581 4.66234C11.0094 5.42627 11.0844 6.23719 10.9774 7.03424C10.8704 7.83129 10.5842 8.59369 10.1403 9.26433C8.77508 11.4118 7.39396 13.5488 6.01991 15.6892L5.98437 15.746C5.94501 15.8386 5.87926 15.9176 5.79529 15.9731C5.71132 16.0287 5.61286 16.0584 5.51217 16.0584C5.41148 16.0584 5.31301 16.0287 5.22904 15.9731C5.14507 15.9176 5.07933 15.8386 5.03997 15.746C4.69675 15.2135 4.35471 14.6811 4.01386 14.1486C2.96113 12.5069 1.90312 10.8688 0.859271 9.22176C0.114985 8.08746 -0.160513 6.70892 0.0906149 5.37577C0.23367 4.46186 0.610011 3.60028 1.18346 2.87432C1.75692 2.14836 2.50808 1.58252 3.36418 1.23157C4.13356 0.909132 4.96449 0.760117 5.798 0.795014M5.51574 3.79617C5.02126 3.79477 4.53747 3.93995 4.12547 4.21333C3.71346 4.48671 3.39177 4.87602 3.201 5.33212C3.01023 5.78821 2.95893 6.29067 3.05364 6.77588C3.14835 7.26109 3.38483 7.70731 3.73312 8.05824C4.08141 8.40916 4.52591 8.64905 5.01049 8.74751C5.49507 8.84598 5.99791 8.79861 6.4556 8.61145C6.91328 8.4243 7.30527 8.10575 7.58193 7.696C7.85858 7.28624 8.00757 6.80368 8.01003 6.30932C8.01098 5.64588 7.74909 5.00904 7.28168 4.53809C6.81427 4.06715 6.17934 3.80039 5.51574 3.79617Z" fill="#FF0000"/>
</g>
</svg>
