<svg width="189" height="170" viewBox="0 0 189 170" fill="none" xmlns="http://www.w3.org/2000/svg">
<path id="Vector" d="M60.1481 0.141953C71.2536 -1.46224 83.018 10.7108 86.4061 27.5076C89.7943 44.2101 83.6768 59.1196 72.5712 60.8182C61.5598 62.5168 49.7013 50.3438 46.2191 33.5469C42.7368 16.8444 49.0425 1.93487 60.1481 0.141953ZM127.44 0.141953C138.64 1.93487 144.851 16.8444 141.557 33.5469C137.981 50.3438 126.217 62.5168 115.111 60.8182C103.911 59.1196 97.794 44.2101 101.276 27.5076C104.664 10.7108 116.429 -1.46224 127.44 0.141953ZM9.79662 43.5495C20.5257 38.9257 35.1135 47.3241 42.7368 61.9506C49.8896 76.8601 47.4426 92.5246 36.8076 97.1485C26.1726 101.772 11.6789 93.4682 4.24385 78.653C-3.19123 63.8379 -0.556012 48.079 9.79662 43.5495ZM179.203 43.5495C189.556 48.079 192.191 63.8379 184.756 78.653C177.321 93.4682 162.827 101.772 152.192 97.1485C141.557 92.5246 139.11 76.8601 146.263 61.9506C153.886 47.3241 168.474 38.9257 179.203 43.5495ZM163.486 145.274C163.863 154.144 157.086 163.958 148.993 167.639C132.146 175.376 112.194 159.335 93.4647 159.335C74.7359 159.335 54.5953 176.037 38.0311 167.639C28.6196 163.015 22.1257 150.747 23.3492 140.556C25.0432 126.496 41.8898 118.947 51.866 108.661C65.1362 95.3555 74.5477 70.349 93.4647 70.349C112.288 70.349 122.264 94.9781 134.969 108.661C145.416 120.173 162.827 129.893 163.486 145.274Z" fill="#157A8C"/>
</svg>
