<svg width="233" height="142" viewBox="0 0 233 142" fill="none" xmlns="http://www.w3.org/2000/svg">
<g clip-path="url(#clip0_927_1183)">
<path d="M18.8149 49.4899C20.6062 55.0962 22.0545 60.0278 24.5245 64.6046C25.4023 66.3021 26.6608 67.7764 28.2027 68.9137C29.7447 70.0509 31.5289 70.8208 33.4177 71.1638C38.8123 72.3254 43.1155 68.8336 43.3604 63.3665C43.7172 55.3049 38.6724 50.2272 33.3197 45.2817C31.9203 44.0019 29.2614 43.2855 29.6953 41.1083C30.1291 38.9312 32.9489 38.7434 34.8241 38.0757C42.1779 35.4464 46.1382 36.5454 50.7912 42.5899C52.5824 44.92 54.9894 45.9147 57.5923 46.3738C62.7141 47.2641 67.9059 47.7162 73.0277 48.7178C74.9518 49.0934 75.6795 49.316 74.462 51.1941C74.1831 51.8105 73.9968 52.4644 73.9093 53.1347C71.4743 62.4901 66.9893 69.9813 56.5007 72.0402C54.1078 72.5062 51.7428 73.1044 49.3498 73.5078C42.1219 74.7251 35.034 76.2901 28.3588 79.5662C22.7612 82.3485 19.2627 85.7359 20.2213 92.782C20.6971 96.3572 21.7187 98.0544 24.9653 99.1464C37.1614 103.338 50.4437 103.185 62.5392 98.7152C75.8335 93.9297 84.4817 84.8039 86.3289 70.3013C87.3089 63.4341 86.8853 56.441 85.0835 49.7403C81.7179 37.7557 74.532 28.5116 63.2738 22.8706C54.5276 18.4955 44.9907 17.9807 35.4328 19.5805C18.9129 22.3628 0.524776 36.0307 0.223906 57.2664C-0.167926 84.5882 0.111954 111.917 0.00699901 139.218C0.00699901 141.409 0.839641 142 2.88976 141.931C5.68578 141.755 8.49014 141.755 11.2862 141.931C14.1689 142.167 15.0296 141.193 15.0365 138.293C15.0365 117.788 15.2465 97.2545 15.3864 76.784C15.4284 71.3655 15.3864 65.9401 15.5473 60.5286C15.6173 56.8768 16.7018 53.4199 18.8149 49.4899ZM133.895 104.746C139.758 104.984 145.601 103.919 150.998 101.626C156.394 99.3339 161.208 95.8727 165.087 91.4952C170.923 85.0682 174.834 77.8273 174.638 68.8406C174.589 66.4548 173.938 65.2445 171.251 65.2932C168.233 65.4519 165.206 65.2581 162.232 64.7159C160.133 64.2498 159.112 65.2097 158.566 67.2408C157.348 71.8122 155.591 76.2248 153.332 80.387C151.534 83.7049 149.204 86.4384 145.573 87.9896C140.395 90.2084 134.958 90.431 129.479 90.0763C121.825 89.6033 115.485 86.5984 110.79 80.2618C108.551 77.3301 106.917 73.9868 105.982 70.4246C105.048 66.8624 104.832 63.1517 105.347 59.5061C106.816 47.7858 114.24 34.883 129.451 33.6588C136.295 33.1163 142.655 34.1109 147.644 39.432C149.043 40.9553 149.253 41.9221 147.126 43.0907C135.672 49.4065 124.316 55.903 112.841 62.1979C110.126 63.6795 108.929 65.0706 111.035 67.9433C112.423 69.7906 113.584 71.7965 114.492 73.9182C115.429 76.1927 116.486 76.0675 118.368 75.052C135.819 65.6618 153.309 56.3227 170.839 47.0346C172.651 46.0747 172.868 45.0522 171.832 43.4872C166.899 36.0098 161.337 29.0472 153.479 24.4217C130.116 10.6355 97.6711 23.5244 90.5062 49.5386C87.1686 61.718 87.6304 73.8835 94.5154 84.9082C103.129 98.6943 116.178 104.822 133.895 104.746ZM190.99 27.7395C194.419 29.395 196.84 30.7861 199.421 31.7599C202.647 32.9772 205.425 35.4047 209.049 35.4951C213.345 35.6064 217.649 35.4464 221.945 35.5925C224.163 35.669 224.744 34.7509 224.667 32.7268C224.512 29.9693 224.528 27.205 224.716 24.4495C224.967 21.3403 224.016 20.2065 220.664 20.2761C212.31 20.5126 203.934 20.2761 195.573 20.4013C193.306 20.4013 192.501 19.7057 192.564 17.4451C192.704 12.7222 192.459 7.99239 192.662 3.27644C192.774 0.605466 191.809 -0.131835 189.255 0.00727821C185.773 0.188121 182.283 0.188121 178.801 0.00727821C176.436 -0.110968 175.877 0.835003 175.884 3.01213C175.953 27.5587 175.793 52.1122 176.044 76.6588C176.128 84.9221 179.893 91.7456 186.932 96.4894C197.322 103.487 209.252 104.266 221.252 104.69C223.064 104.753 223.351 103.765 223.351 102.297C223.309 98.124 223.295 93.9993 223.351 89.8537C223.351 88.1913 222.973 87.3218 221.042 87.287C218.61 87.2609 216.185 87.0282 213.793 86.5915C205.061 84.943 197.245 81.9451 193.439 72.9305C192.445 70.5795 192.739 70.1483 195.328 69.8353C198.687 69.4666 202.276 69.7101 205.341 67.7486C202.221 67.8281 199.111 68.1092 196.028 68.5902C194.873 68.7363 193.11 69.5848 192.865 67.832C192.585 65.794 194.58 66.5313 195.664 66.4965C198.421 66.4061 201.178 66.4965 203.927 66.4965L203.893 65.3488C201.045 65.3488 198.197 65.3488 195.356 65.3488C194.349 65.3488 192.851 65.481 192.893 64.1177C192.942 62.2536 194.607 63.1995 195.608 63.1022C197.434 62.9283 199.26 64.4933 201.423 63.1717C199.219 62.191 197.154 62.0866 195.125 61.7389C193.908 61.5302 192.613 61.2798 192.599 59.4852C192.487 49.1074 193.131 38.7504 190.99 27.7395ZM232.972 53.4129C232.713 51.6044 231.727 50.2272 229.683 50.1785C228.808 50.1545 227.958 50.4774 227.322 51.0762C226.685 51.6749 226.314 52.5005 226.29 53.3712C226.266 54.2419 226.591 55.0865 227.193 55.7192C227.795 56.3518 228.626 56.7207 229.502 56.7447C231.573 56.7864 232.678 55.5344 233 53.4129H232.972ZM206.013 50.109C204.018 50.4428 202.976 51.5697 203.088 53.5868C203.2 55.604 204.333 56.7864 206.383 56.7169C208.434 56.6473 209.427 55.3257 209.385 53.3016C209.364 51.1941 207.923 50.4359 206.041 50.109H206.013ZM222.7 70.6699C218.215 70.0787 217.53 69.3901 219.146 66.7122C219.51 66.114 220.776 65.4601 219.685 64.8341C219.087 64.4773 218.402 64.2888 217.705 64.2888C217.007 64.2888 216.323 64.4773 215.724 64.8341C214.766 65.5297 216.011 66.1488 216.424 66.74C217.824 68.8267 217.124 69.9187 214.759 70.1413C213.884 70.2178 213.003 70.1413 212.121 70.1413C215.619 71.6089 219.202 70.969 222.728 70.6699H222.7ZM40.5756 46.7911C40.8415 47.8066 41.4152 49.0308 42.9476 48.8778C44.256 48.7804 45.4455 48.0223 45.3895 46.4572C45.4057 46.1121 45.3476 45.7675 45.219 45.4464C45.0904 45.1254 44.8944 44.8354 44.6441 44.5957C44.3937 44.356 44.0947 44.1722 43.7672 44.0566C43.4396 43.941 43.091 43.8963 42.7447 43.9254C41.1493 43.9254 40.6036 45.0383 40.5756 46.7911Z" fill="#107D8B"/>
<path d="M18.8149 49.4896C16.7158 53.4405 15.6173 56.8974 15.5123 60.6187C15.3654 66.0302 15.3934 71.4557 15.3514 76.8741C15.2114 97.3725 15.0155 117.913 15.0015 138.383C15.0015 141.284 14.1339 142.257 11.2511 142.021C8.45512 141.846 5.65076 141.846 2.85474 142.021C0.804625 142.111 -0.0350152 141.499 -0.0280182 139.308C0.0629427 111.986 -0.202942 84.6575 0.18889 57.3356C0.524746 36.0304 18.9129 22.3625 35.4328 19.5803C44.9907 17.9735 54.5276 18.4882 63.3088 22.8912C74.567 28.5322 81.7529 37.7763 85.1184 49.7609C86.925 56.4727 87.3487 63.4781 86.3639 70.3567C84.5097 84.8384 75.8684 94.0059 62.5741 98.7706C50.4786 103.241 37.1963 103.393 25.0002 99.2018C21.7536 98.1098 20.7321 96.4196 20.2563 92.8374C19.3047 85.7635 22.7682 82.4039 28.3938 79.6216C35.0409 76.3246 42.1289 74.7526 49.3848 73.5632C51.7777 73.1598 54.1427 72.5616 56.5357 72.0956C67.0312 70.0089 71.5093 62.5454 73.9442 53.1901C74.0318 52.5197 74.218 51.8659 74.497 51.2494C75.7145 49.3714 74.9868 49.1627 73.0626 48.7732C67.9408 47.7716 62.749 47.3195 57.6272 46.4291C54.9964 45.9701 52.6174 44.9754 50.8262 42.6453C46.1732 36.6008 42.2129 35.5018 34.859 38.131C32.9838 38.8266 30.185 38.917 29.7302 41.1637C29.2754 43.4104 31.9692 44.0503 33.3547 45.3371C38.7074 50.2687 43.7522 55.3463 43.3953 63.4219C43.1505 68.889 38.8473 72.3808 33.4526 71.2192C31.5639 70.8762 29.7796 70.1063 28.2377 68.969C26.6957 67.8318 25.4373 66.3575 24.5594 64.66C22.0545 60.0066 20.6061 55.0542 18.8149 49.4896Z" fill="#107D8B"/>
<path d="M133.895 104.746C116.178 104.822 103.108 98.6941 94.5084 84.908C87.6234 73.8972 87.1616 61.7178 90.4991 49.5384C97.6361 23.5242 130.081 10.6353 153.472 24.4215C161.323 29.047 166.892 36.0096 171.825 43.487C172.861 45.052 172.644 46.0745 170.832 47.0344C153.325 56.3086 135.847 65.6477 118.396 75.0518C116.514 76.0673 115.457 76.1925 114.52 73.918C113.612 71.7963 112.451 69.7904 111.063 67.9431C108.964 65.0704 110.154 63.6793 112.869 62.1977C124.337 55.9376 135.693 49.4063 147.154 43.0905C149.253 41.922 149.099 40.9551 147.672 39.4318C142.69 34.1107 136.329 33.1161 129.479 33.6586C114.24 34.8828 106.816 47.7856 105.368 59.5198C104.853 63.1654 105.069 66.8761 106.003 70.4384C106.938 74.0006 108.572 77.3438 110.811 80.2755C115.499 86.633 121.846 89.617 129.5 90.09C134.958 90.4308 140.395 90.2082 145.594 88.0033C149.225 86.4521 151.555 83.7186 153.353 80.4007C155.612 76.2385 157.369 71.8259 158.587 67.2545C159.133 65.2234 160.154 64.2636 162.253 64.7296C165.227 65.2719 168.254 65.4656 171.272 65.3069C173.959 65.2582 174.61 66.4685 174.659 68.8543C174.855 77.841 170.944 85.0819 165.108 91.5089C161.225 95.8867 156.408 99.3469 151.007 101.637C145.607 103.927 139.761 104.989 133.895 104.746Z" fill="#107D8B"/>
<path d="M190.99 27.739C193.131 38.7499 192.487 49.1069 192.585 59.436C192.585 61.2306 193.894 61.481 195.111 61.6897C197.133 62.0374 199.197 62.1418 201.409 63.1225C199.246 64.4302 197.42 62.8791 195.594 63.053C194.593 63.1504 192.928 62.2044 192.879 64.0685C192.837 65.4596 194.335 65.2858 195.342 65.2997C198.183 65.3414 201.031 65.2997 203.878 65.2997L203.913 66.4473C201.164 66.4473 198.407 66.3917 195.65 66.4473C194.565 66.4473 192.571 65.7518 192.851 67.7828C193.096 69.5357 194.859 68.6871 196.014 68.541C199.09 68.0679 202.194 67.7938 205.306 67.7202C202.241 69.6539 198.652 69.4105 195.293 69.8069C192.725 70.0852 192.41 70.5512 193.404 72.9022C197.21 81.9446 205.026 84.9146 213.758 86.5631C216.15 86.9999 218.575 87.2326 221.007 87.2587C222.938 87.2587 223.344 88.1629 223.316 89.8253C223.246 93.9987 223.26 98.1235 223.316 102.269C223.316 103.737 223.057 104.724 221.217 104.662C209.217 104.237 197.287 103.458 186.897 96.4611C179.858 91.7173 176.093 84.8938 176.009 76.6304C175.758 52.0839 175.918 27.5304 175.849 2.98381C175.849 0.806682 176.401 -0.139289 178.766 -0.0210421C182.248 0.159801 185.738 0.159801 189.22 -0.0210421C191.774 -0.160156 192.718 0.577146 192.627 3.24812C192.424 7.96407 192.669 12.6939 192.529 17.4168C192.466 19.6913 193.271 20.4008 195.538 20.373C203.899 20.2617 212.275 20.4843 220.629 20.2478C223.967 20.1504 224.932 21.2842 224.681 24.4212C224.509 27.1823 224.509 29.9513 224.681 32.7123C224.772 34.7364 224.177 35.6546 221.959 35.5781C217.663 35.432 213.359 35.5781 209.063 35.4807C205.439 35.3903 202.661 32.9627 199.435 31.7455C196.839 30.7856 194.419 29.3945 190.99 27.739Z" fill="#107D8B"/>
<path d="M233 53.4124C232.678 55.4991 231.601 56.7859 229.501 56.7442C228.626 56.7202 227.795 56.3513 227.193 55.7186C226.591 55.086 226.266 54.2414 226.29 53.3707C226.314 52.4999 226.685 51.6744 227.321 51.0757C227.958 50.4769 228.807 50.154 229.683 50.178C231.754 50.2267 232.741 51.5761 233 53.4124Z" fill="#107D8B"/>
<path d="M206.041 50.1084C207.923 50.4353 209.364 51.1935 209.413 53.3358C209.455 55.346 208.503 56.6746 206.411 56.7511C204.319 56.8276 203.221 55.6799 203.116 53.621C203.011 51.5621 204.046 50.4423 206.041 50.1084Z" fill="#107D8B"/>
<path d="M222.728 70.6693C219.23 70.9684 215.648 71.6083 212.135 70.1894C213.017 70.1894 213.898 70.252 214.773 70.1894C217.159 69.9668 217.859 68.8817 216.438 66.7881C216.039 66.1968 214.794 65.5499 215.738 64.8822C216.337 64.5254 217.021 64.3369 217.719 64.3369C218.416 64.3369 219.101 64.5254 219.699 64.8822C220.79 65.5082 219.524 66.1621 219.16 66.7602C217.558 69.3895 218.243 70.0781 222.728 70.6693Z" fill="#107D8B"/>
<path d="M40.5756 46.7908C40.5756 45.038 41.1493 43.9321 42.7446 43.9112C43.0953 43.8813 43.4484 43.9272 43.7796 44.0456C44.1108 44.1641 44.4123 44.3523 44.6635 44.5974C44.9147 44.8425 45.1096 45.1387 45.2349 45.4656C45.3602 45.7926 45.413 46.1426 45.3895 46.4917C45.4455 48.0568 44.256 48.8149 42.9475 48.9123C41.3942 49.0306 40.8414 47.8064 40.5756 46.7908Z" fill="#107D8B"/>
</g>
<defs>
<clipPath id="clip0_927_1183">
<rect width="233" height="142" fill="white"/>
</clipPath>
</defs>
</svg>
