<svg width="21" height="26" viewBox="0 0 21 26" fill="none" xmlns="http://www.w3.org/2000/svg">
<path d="M10.9187 0C11.2462 0.066094 11.5755 0.122663 11.9007 0.198879C14.1323 0.724654 16.0393 2.86586 16.3384 5.15653C16.5356 6.66359 16.3189 8.08967 15.4714 9.36451C14.3461 11.0579 12.7896 12.044 10.731 12.1839C8.02853 12.3679 5.80521 10.7692 4.79542 8.59877C3.84782 6.56058 4.231 3.84536 5.71696 2.1561C6.62903 1.11943 7.72826 0.4049 9.08866 0.126233C9.32023 0.078598 9.55357 0.0416809 9.78633 0C10.1636 0 10.5409 0 10.9181 0H10.9187ZM14.9383 6.12888C14.9816 3.61909 12.9549 1.53505 10.423 1.48563C7.87513 1.43621 5.81942 3.44701 5.7519 6.02349C5.68616 8.53447 7.76794 10.709 10.3182 10.7251C12.8039 10.7406 14.952 8.6738 14.9383 6.12828V6.12888Z" fill="#838383"/>
<path d="M10.4976 25.3313C8.50527 25.3313 6.51293 25.3301 4.5206 25.3313C3.49896 25.3319 2.53418 25.1301 1.68608 24.5215C0.731365 23.8362 0.160428 22.8954 0.0585602 21.7325C-0.126223 19.6211 0.117788 17.5495 0.911998 15.5744C1.3781 14.4157 2.07459 13.4189 3.2123 12.805C3.92952 12.418 4.69827 12.2334 5.50255 12.2471C5.75662 12.2513 6.02551 12.3763 6.25708 12.5026C6.6373 12.7104 6.98969 12.9706 7.35926 13.1992C9.46057 14.4973 11.5619 14.4943 13.6602 13.1909C13.9528 13.0093 14.2507 12.8324 14.5261 12.6258C15.0295 12.2489 15.5821 12.1923 16.182 12.2805C17.8161 12.521 18.9727 13.4171 19.7527 14.8528C20.4492 16.1342 20.7625 17.5263 20.9023 18.9607C20.9751 19.7139 21.0083 20.4743 20.9982 21.2311C20.9686 23.4093 19.4193 25.0747 17.2594 25.2831C16.9502 25.3129 16.6381 25.3284 16.3271 25.329C14.384 25.3331 12.4408 25.3307 10.4982 25.3307L10.4976 25.3313ZM10.5029 23.8469C10.5029 23.8469 10.5029 23.8445 10.5029 23.8433C12.5853 23.8433 14.6682 23.8618 16.7506 23.8374C18.4806 23.8171 19.5431 22.7072 19.5289 20.9691C19.5235 20.3106 19.4969 19.649 19.4246 18.9952C19.2943 17.8204 19.0521 16.6712 18.4853 15.6155C17.8978 14.5205 17.0461 13.8125 15.7651 13.7405C15.6585 13.7345 15.5347 13.7589 15.4441 13.8131C15.1201 14.0054 14.808 14.2192 14.4888 14.4205C12.1606 15.8882 9.74959 16.074 7.27101 14.8474C6.69297 14.5616 6.16528 14.174 5.61211 13.8375C5.53097 13.7881 5.43325 13.7274 5.34619 13.7315C4.5502 13.7679 3.83595 14.0191 3.26383 14.5985C2.78884 15.0796 2.45719 15.6566 2.21555 16.2836C1.59723 17.8865 1.44799 19.5651 1.48885 21.2627C1.51136 22.1904 1.90995 22.949 2.72962 23.4355C3.27568 23.7594 3.88037 23.8469 4.50342 23.8469C6.50405 23.8463 8.50467 23.8469 10.5047 23.8469H10.5029Z" fill="#838383"/>
</svg>
