<svg width="47" height="16" viewBox="0 0 47 16" fill="none" xmlns="http://www.w3.org/2000/svg">
<path d="M6.18 15.16C5.11333 15.16 4.09333 15 3.12 14.68C2.14667 14.3467 1.38 13.92 0.82 13.4L1.56 11.84C2.09333 12.3067 2.77333 12.6933 3.6 13C4.42667 13.3067 5.28667 13.46 6.18 13.46C6.99333 13.46 7.65333 13.3667 8.16 13.18C8.66667 12.9933 9.04 12.74 9.28 12.42C9.52 12.0867 9.64 11.7133 9.64 11.3C9.64 10.82 9.48 10.4333 9.16 10.14C8.85333 9.84667 8.44667 9.61333 7.94 9.44C7.44667 9.25333 6.9 9.09333 6.3 8.96C5.7 8.82667 5.09333 8.67333 4.48 8.5C3.88 8.31333 3.32667 8.08 2.82 7.8C2.32667 7.52 1.92667 7.14667 1.62 6.68C1.31333 6.2 1.16 5.58667 1.16 4.84C1.16 4.12 1.34667 3.46 1.72 2.86C2.10667 2.24667 2.69333 1.76 3.48 1.4C4.28 1.02667 5.29333 0.84 6.52 0.84C7.33333 0.84 8.14 0.946666 8.94 1.16C9.74 1.37333 10.4333 1.68 11.02 2.08L10.36 3.68C9.76 3.28 9.12667 2.99333 8.46 2.82C7.79333 2.63333 7.14667 2.54 6.52 2.54C5.73333 2.54 5.08667 2.64 4.58 2.84C4.07333 3.04 3.7 3.30667 3.46 3.64C3.23333 3.97333 3.12 4.34667 3.12 4.76C3.12 5.25333 3.27333 5.64667 3.58 5.94C3.9 6.23333 4.30667 6.46667 4.8 6.64C5.30667 6.81333 5.86 6.97333 6.46 7.12C7.06 7.25333 7.66 7.40667 8.26 7.58C8.87333 7.75333 9.42667 7.98 9.92 8.26C10.4267 8.54 10.8333 8.91333 11.14 9.38C11.4467 9.84667 11.6 10.4467 11.6 11.18C11.6 11.8867 11.4067 12.5467 11.02 13.16C10.6333 13.76 10.0333 14.2467 9.22 14.62C8.42 14.98 7.40667 15.16 6.18 15.16ZM20.8419 15V12.76L20.7419 12.34V8.52C20.7419 7.70667 20.5019 7.08 20.0219 6.64C19.5552 6.18667 18.8485 5.96 17.9019 5.96C17.2752 5.96 16.6619 6.06667 16.0619 6.28C15.4619 6.48 14.9552 6.75333 14.5419 7.1L13.7419 5.66C14.2885 5.22 14.9419 4.88667 15.7019 4.66C16.4752 4.42 17.2819 4.3 18.1219 4.3C19.5752 4.3 20.6952 4.65333 21.4819 5.36C22.2685 6.06667 22.6619 7.14667 22.6619 8.6V15H20.8419ZM17.3619 15.12C16.5752 15.12 15.8819 14.9867 15.2819 14.72C14.6952 14.4533 14.2419 14.0867 13.9219 13.62C13.6019 13.14 13.4419 12.6 13.4419 12C13.4419 11.4267 13.5752 10.9067 13.8419 10.44C14.1219 9.97333 14.5685 9.6 15.1819 9.32C15.8085 9.04 16.6485 8.9 17.7019 8.9H21.0619V10.28H17.7819C16.8219 10.28 16.1752 10.44 15.8419 10.76C15.5085 11.08 15.3419 11.4667 15.3419 11.92C15.3419 12.44 15.5485 12.86 15.9619 13.18C16.3752 13.4867 16.9485 13.64 17.6819 13.64C18.4019 13.64 19.0285 13.48 19.5619 13.16C20.1085 12.84 20.5019 12.3733 20.7419 11.76L21.1219 13.08C20.8685 13.7067 20.4219 14.2067 19.7819 14.58C19.1419 14.94 18.3352 15.12 17.3619 15.12ZM28.8197 15L24.1797 4.4H26.1797L30.2997 14H29.3397L33.5397 4.4H35.4197L30.7797 15H28.8197ZM41.6586 15.12C40.5253 15.12 39.5253 14.8867 38.6586 14.42C37.8053 13.9533 37.1386 13.3133 36.6586 12.5C36.1919 11.6867 35.9586 10.7533 35.9586 9.7C35.9586 8.64667 36.1853 7.71333 36.6386 6.9C37.1053 6.08667 37.7386 5.45333 38.5386 5C39.3519 4.53333 40.2653 4.3 41.2786 4.3C42.3053 4.3 43.2119 4.52667 43.9986 4.98C44.7853 5.43333 45.3986 6.07333 45.8386 6.9C46.2919 7.71333 46.5186 8.66667 46.5186 9.76C46.5186 9.84 46.5119 9.93333 46.4986 10.04C46.4986 10.1467 46.4919 10.2467 46.4786 10.34H37.4586V8.96H45.4786L44.6986 9.44C44.7119 8.76 44.5719 8.15333 44.2786 7.62C43.9853 7.08667 43.5786 6.67333 43.0586 6.38C42.5519 6.07333 41.9586 5.92 41.2786 5.92C40.6119 5.92 40.0186 6.07333 39.4986 6.38C38.9786 6.67333 38.5719 7.09333 38.2786 7.64C37.9853 8.17333 37.8386 8.78667 37.8386 9.48V9.8C37.8386 10.5067 37.9986 11.14 38.3186 11.7C38.6519 12.2467 39.1119 12.6733 39.6986 12.98C40.2853 13.2867 40.9586 13.44 41.7186 13.44C42.3453 13.44 42.9119 13.3333 43.4186 13.12C43.9386 12.9067 44.3919 12.5867 44.7786 12.16L45.8386 13.4C45.3586 13.96 44.7586 14.3867 44.0386 14.68C43.3319 14.9733 42.5386 15.12 41.6586 15.12Z" fill="#0E6F7D"/>
</svg>
