<svg width="35" height="28" viewBox="0 0 35 28" fill="none" xmlns="http://www.w3.org/2000/svg">
<path id="Vector" d="M18.4254 0V0.0156603C17.9323 0.0156603 17.4392 0.1566 17.0415 0.422819C16.2462 0.970918 16.1508 1.87919 16.8666 2.45861L21.4158 6.07606L7.52942 6.12304H7.51351C6.36824 6.12304 5.25479 6.85906 5.03209 7.79866C4.77759 8.75392 5.57292 9.55257 6.78181 9.55257L13.8284 9.53691L1.21453 19.0738C0.00563022 19.9664 -0.36022 21.4541 0.387387 22.3937C1.1509 23.349 2.75746 23.349 3.98226 22.3937L10.8221 16.8658C10.8221 16.8658 10.7107 17.6174 10.7266 18.0559C10.7266 18.5101 10.8857 19.387 11.0925 20.0604C11.5538 21.5168 12.3332 22.8479 13.4148 24.0224C14.5283 25.2282 15.9122 26.1991 17.5028 26.8881C19.1412 27.6242 20.9545 28 22.8156 28C24.6608 28 26.49 27.6085 28.1443 26.8725C29.7349 26.1834 31.1029 25.1969 32.2164 23.9911C33.298 22.8166 34.0774 21.4698 34.5387 20.0291C34.7614 19.2931 34.9046 18.557 35 17.821C35 17.085 35 16.349 34.9046 15.613C34.6978 14.1879 34.2047 12.8412 33.4093 11.6197C32.7095 10.5078 31.8187 9.52125 30.7211 8.69127L19.7615 0.407159C19.3957 0.14094 18.9185 0 18.4254 0ZM22.8156 9.53691C24.6608 9.53691 26.3946 10.132 27.7784 11.2282C28.4783 11.7919 29.0351 12.4497 29.4327 13.1857C29.8622 13.906 30.1326 14.7673 30.228 15.6443C30.2917 16.5213 30.1644 17.3982 29.8622 18.2438C29.5441 19.0895 29.0351 19.8725 28.3511 20.5772C26.9354 21.9866 24.963 22.8009 22.8156 22.8009C20.6841 22.8009 18.6958 22.0022 17.2801 20.5928C16.5961 19.9038 16.0871 19.1051 15.769 18.2595C15.4668 17.4295 15.3395 16.5526 15.4191 15.66C15.4986 14.783 15.769 13.953 16.1826 13.2013C16.5961 12.4653 17.1688 11.8076 17.8687 11.2438C19.2366 10.132 20.9863 9.53691 22.8156 9.53691ZM22.9747 11.7293C21.734 11.7293 20.5887 12.1678 19.7456 12.8725C18.8867 13.5928 18.2981 14.5951 18.2504 15.7539C18.1868 16.9284 18.664 18.0246 19.507 18.8389C20.366 19.6689 21.6067 20.17 22.9747 20.17C24.3426 20.17 25.5674 19.6689 26.4423 18.8389C27.2853 18.0246 27.7625 16.9284 27.6989 15.7539C27.6353 14.5951 27.0467 13.5928 26.2037 12.8725C25.3606 12.1678 24.2154 11.7293 22.9747 11.7293Z" fill="#094953"/>
</svg>
