<svg width="74" height="60" viewBox="0 0 74 60" fill="none" xmlns="http://www.w3.org/2000/svg">
<g filter="url(#filter0_d_1177_1188)">
<g filter="url(#filter1_d_1177_1188)">
<rect x="4" width="66" height="52" rx="8" fill="#157A8C"/>
</g>
</g>
<g filter="url(#filter2_d_1177_1188)">
<path d="M39 10C48.9 10 57 16.3644 57 24.2222C57 32.08 48.9 38.4444 39 38.4444C36.768 38.4444 34.626 38.1244 32.646 37.5556C27.39 42 21 42 21 42C25.194 37.8578 25.86 35.0667 25.95 34C22.89 31.4578 21 28.0089 21 24.2222C21 16.3644 29.1 10 39 10ZM48 26V22.4444H44.4V26H48ZM40.8 26V22.4444H37.2V26H40.8ZM33.6 26V22.4444H30V26H33.6Z" fill="#E2EFF1"/>
</g>
<defs>
<filter id="filter0_d_1177_1188" x="0" y="0" width="74" height="60" filterUnits="userSpaceOnUse" color-interpolation-filters="sRGB">
<feFlood flood-opacity="0" result="BackgroundImageFix"/>
<feColorMatrix in="SourceAlpha" type="matrix" values="0 0 0 0 0 0 0 0 0 0 0 0 0 0 0 0 0 0 127 0" result="hardAlpha"/>
<feOffset dy="4"/>
<feGaussianBlur stdDeviation="2"/>
<feComposite in2="hardAlpha" operator="out"/>
<feColorMatrix type="matrix" values="0 0 0 0 0 0 0 0 0 0 0 0 0 0 0 0 0 0 0.25 0"/>
<feBlend mode="normal" in2="BackgroundImageFix" result="effect1_dropShadow_1177_1188"/>
<feBlend mode="normal" in="SourceGraphic" in2="effect1_dropShadow_1177_1188" result="shape"/>
</filter>
<filter id="filter1_d_1177_1188" x="0" y="0" width="74" height="60" filterUnits="userSpaceOnUse" color-interpolation-filters="sRGB">
<feFlood flood-opacity="0" result="BackgroundImageFix"/>
<feColorMatrix in="SourceAlpha" type="matrix" values="0 0 0 0 0 0 0 0 0 0 0 0 0 0 0 0 0 0 127 0" result="hardAlpha"/>
<feOffset dy="4"/>
<feGaussianBlur stdDeviation="2"/>
<feComposite in2="hardAlpha" operator="out"/>
<feColorMatrix type="matrix" values="0 0 0 0 0 0 0 0 0 0 0 0 0 0 0 0 0 0 0.25 0"/>
<feBlend mode="normal" in2="BackgroundImageFix" result="effect1_dropShadow_1177_1188"/>
<feBlend mode="normal" in="SourceGraphic" in2="effect1_dropShadow_1177_1188" result="shape"/>
</filter>
<filter id="filter2_d_1177_1188" x="17" y="10" width="44" height="40" filterUnits="userSpaceOnUse" color-interpolation-filters="sRGB">
<feFlood flood-opacity="0" result="BackgroundImageFix"/>
<feColorMatrix in="SourceAlpha" type="matrix" values="0 0 0 0 0 0 0 0 0 0 0 0 0 0 0 0 0 0 127 0" result="hardAlpha"/>
<feOffset dy="4"/>
<feGaussianBlur stdDeviation="2"/>
<feComposite in2="hardAlpha" operator="out"/>
<feColorMatrix type="matrix" values="0 0 0 0 0 0 0 0 0 0 0 0 0 0 0 0 0 0 0.25 0"/>
<feBlend mode="normal" in2="BackgroundImageFix" result="effect1_dropShadow_1177_1188"/>
<feBlend mode="normal" in="SourceGraphic" in2="effect1_dropShadow_1177_1188" result="shape"/>
</filter>
</defs>
</svg>
