<svg width="71" height="49" viewBox="0 0 71 49" fill="none" xmlns="http://www.w3.org/2000/svg">
<g opacity="0.6">
<path opacity="0.01" d="M69.5624 44.1595C69.5624 46.4657 54.105 48.3366 35.0376 48.3366C15.9702 48.3366 0.512817 46.4657 0.512817 44.1595C0.512817 41.8534 15.9702 39.9824 35.0376 39.9824C54.105 39.9824 69.5624 41.8512 69.5624 44.1595Z" fill="#FEFEFE"/>
<path opacity="0.0189" d="M69.4891 44.1496C69.4891 46.4366 54.1632 48.2905 35.2596 48.2905C16.3559 48.2905 1.03003 46.4366 1.03003 44.1496C1.03003 41.8627 16.3559 40.0088 35.2596 40.0088C54.1653 40.0088 69.4891 41.8627 69.4891 44.1496Z" fill="#FDFDFE"/>
<path opacity="0.0283" d="M69.4182 44.1387C69.4182 46.4065 54.2238 48.2433 35.4818 48.2433C16.7399 48.2433 1.54541 46.4044 1.54541 44.1387C1.54541 41.8731 16.7399 40.0342 35.4818 40.0342C54.2238 40.0342 69.4182 41.8731 69.4182 44.1387Z" fill="#FCFDFD"/>
<path opacity="0.0377" d="M69.345 44.1298C69.345 46.3762 54.2842 48.1981 35.7039 48.1981C17.1236 48.1981 2.06274 46.3762 2.06274 44.1298C2.06274 41.8834 17.1236 40.0615 35.7039 40.0615C54.2821 40.0594 69.345 41.8813 69.345 44.1298Z" fill="#FBFCFC"/>
<path opacity="0.0472" d="M69.2716 44.1189C69.2716 46.3462 54.3423 48.151 35.9236 48.151C17.5071 48.151 2.57556 46.3462 2.57556 44.1189C2.57556 41.8917 17.5049 40.0869 35.9236 40.0869C54.3423 40.0869 69.2716 41.8917 69.2716 44.1189Z" fill="#FAFBFB"/>
<path opacity="0.0566" d="M36.1455 48.1038C54.4001 48.1038 69.1983 46.3149 69.1983 44.1081C69.1983 41.9013 54.4001 40.1123 36.1455 40.1123C17.891 40.1123 3.09277 41.9013 3.09277 44.1081C3.09277 46.3149 17.891 48.1038 36.1455 48.1038Z" fill="#F9FAFB"/>
<path opacity="0.066" d="M69.1249 44.0982C69.1249 46.2849 54.4585 48.0577 36.3653 48.0577C18.2742 48.0577 3.60779 46.2849 3.60779 44.0982C3.60779 41.9115 18.2742 40.1387 36.3653 40.1387C54.4585 40.1387 69.1249 41.9115 69.1249 44.0982Z" fill="#F8FAFA"/>
<path opacity="0.0755" d="M69.0517 44.0893C69.0517 46.2567 54.5167 48.0125 36.5873 48.0125C18.6579 48.0125 4.12292 46.2567 4.12292 44.0893C4.12292 41.9218 18.6579 40.166 36.5873 40.166C54.5167 40.1639 69.0517 41.9218 69.0517 44.0893Z" fill="#F7F9F9"/>
<path opacity="0.0849" d="M68.9786 44.0784C68.9786 46.2245 54.5751 47.9653 36.8073 47.9653C19.0395 47.9653 4.63818 46.2245 4.63818 44.0784C4.63818 41.9322 19.0417 40.1914 36.8073 40.1914C54.5751 40.1914 68.9786 41.9322 68.9786 44.0784Z" fill="#F6F8F8"/>
<path opacity="0.0943" d="M68.9052 44.0685C68.9052 46.1954 54.6332 47.9192 37.0292 47.9192C19.4252 47.9192 5.1532 46.1954 5.1532 44.0685C5.1532 41.9415 19.4252 40.2178 37.0292 40.2178C54.6353 40.2178 68.9052 41.9415 68.9052 44.0685Z" fill="#F5F7F8"/>
<path opacity="0.1038" d="M68.8342 44.0576C68.8342 46.1653 54.6936 47.872 37.2513 47.872C19.8089 47.872 5.67053 46.1632 5.67053 44.0576C5.67053 41.9498 19.8111 40.2432 37.2513 40.2432C54.6936 40.2432 68.8342 41.952 68.8342 44.0576Z" fill="#F4F7F7"/>
<path opacity="0.1132" d="M68.7608 44.0487C68.7608 46.1351 54.7517 47.8268 37.4732 47.8268C20.1946 47.8268 6.18555 46.1351 6.18555 44.0487C6.18555 41.9623 20.1946 40.2705 37.4732 40.2705C54.7517 40.2705 68.7608 41.9623 68.7608 44.0487Z" fill="#F3F6F6"/>
<path opacity="0.1226" d="M68.6874 44.0378C68.6874 46.105 54.812 47.7797 37.6929 47.7797C20.576 47.7797 6.70056 46.105 6.70056 44.0378C6.70056 41.9706 20.576 40.2959 37.6929 40.2959C54.8098 40.2959 68.6874 41.9706 68.6874 44.0378Z" fill="#F2F5F6"/>
<path opacity="0.1321" d="M68.6142 44.0269C68.6142 46.0728 54.8702 47.7325 37.9149 47.7325C20.9597 47.7325 7.2157 46.0728 7.2157 44.0269C7.2157 41.981 20.9597 40.3213 37.9149 40.3213C54.8702 40.3213 68.6142 41.981 68.6142 44.0269Z" fill="#F1F4F5"/>
<path opacity="0.1415" d="M68.541 44.019C68.541 46.0457 54.9286 47.6883 38.1349 47.6883C21.3435 47.6883 7.73096 46.0457 7.73096 44.019C7.73096 41.9923 21.3435 40.3496 38.1349 40.3496C54.9286 40.3475 68.541 41.9923 68.541 44.019Z" fill="#F0F4F4"/>
<path opacity="0.1509" d="M38.3568 47.6412C54.9866 47.6412 68.4677 46.0146 68.4677 44.0081C68.4677 42.0016 54.9866 40.375 38.3568 40.375C21.7271 40.375 8.24597 42.0016 8.24597 44.0081C8.24597 46.0146 21.7271 47.6412 38.3568 47.6412Z" fill="#EFF3F3"/>
<path opacity="0.1604" d="M38.5789 47.595C55.0456 47.595 68.3945 45.9847 68.3945 43.9982C68.3945 42.0117 55.0456 40.4014 38.5789 40.4014C22.1122 40.4014 8.76331 42.0117 8.76331 43.9982C8.76331 45.9847 22.1122 47.595 38.5789 47.595Z" fill="#EEF2F3"/>
<path opacity="0.1698" d="M38.7986 47.5479C55.1034 47.5479 68.3211 45.9538 68.3211 43.9873C68.3211 42.0209 55.1034 40.4268 38.7986 40.4268C22.4938 40.4268 9.27612 42.0209 9.27612 43.9873C9.27612 45.9538 22.4938 47.5479 38.7986 47.5479Z" fill="#EDF1F2"/>
<path opacity="0.1792" d="M39.0205 47.5027C55.1623 47.5027 68.2478 45.9248 68.2478 43.9784C68.2478 42.032 55.1623 40.4541 39.0205 40.4541C22.8788 40.4541 9.79333 42.032 9.79333 43.9784C9.79333 45.9248 22.8788 47.5027 39.0205 47.5027Z" fill="#ECF1F1"/>
<path opacity="0.1887" d="M68.1767 43.9685C68.1767 45.8949 55.2215 47.4565 39.2426 47.4565C23.2636 47.4565 10.3085 45.8949 10.3085 43.9685C10.3085 42.0421 23.2636 40.4805 39.2426 40.4805C55.2215 40.4805 68.1767 42.0421 68.1767 43.9685Z" fill="#EBF0F0"/>
<path opacity="0.1981" d="M39.4626 47.4084C55.2794 47.4084 68.1014 45.863 68.1014 43.9566C68.1014 42.0503 55.2794 40.5049 39.4626 40.5049C23.6458 40.5049 10.8237 42.0503 10.8237 43.9566C10.8237 45.863 23.6458 47.4084 39.4626 47.4084Z" fill="#EAEFF0"/>
<path opacity="0.2075" d="M68.0302 43.9487C68.0302 45.8346 55.3401 47.3642 39.6845 47.3642C24.0288 47.3642 11.3387 45.8346 11.3387 43.9487C11.3387 42.0628 24.0288 40.5332 39.6845 40.5332C55.3401 40.5311 68.0302 42.0607 68.0302 43.9487Z" fill="#E9EEEF"/>
<path opacity="0.217" d="M67.9569 43.9378C67.9569 45.8045 55.3983 47.3171 39.9043 47.3171C24.4125 47.3171 11.8539 45.8045 11.8539 43.9378C11.8539 42.0711 24.4125 40.5586 39.9043 40.5586C55.3983 40.5565 67.9569 42.0711 67.9569 43.9378Z" fill="#E8EEEE"/>
<path opacity="0.2264" d="M67.8836 43.9269C67.8836 45.7744 55.4565 47.2699 40.1262 47.2699C24.796 47.2699 12.3689 45.7723 12.3689 43.9269C12.3689 42.0795 24.796 40.584 40.1262 40.584C55.4565 40.584 67.8836 42.0795 67.8836 43.9269Z" fill="#E7EDEE"/>
<path opacity="0.2358" d="M67.8102 43.917C67.8102 45.7432 55.5146 47.2237 40.346 47.2237C25.1796 47.2237 12.8839 45.7432 12.8839 43.917C12.8839 42.0909 25.1796 40.6104 40.346 40.6104C55.5146 40.6104 67.8102 42.0909 67.8102 43.917Z" fill="#E6ECED"/>
<path opacity="0.2453" d="M67.7372 43.9081C67.7372 45.7151 55.573 47.1785 40.5682 47.1785C25.5635 47.1785 13.3993 45.7129 13.3993 43.9081C13.3993 42.1012 25.5635 40.6377 40.5682 40.6377C55.573 40.6356 67.7372 42.1012 67.7372 43.9081Z" fill="#E5EBEC"/>
<path opacity="0.2547" d="M67.6639 43.8974C67.6639 45.6852 55.6312 47.1337 40.7902 47.1337C25.9471 47.1337 13.9165 45.6852 13.9165 43.8974C13.9165 42.1097 25.9492 40.6611 40.7902 40.6611C55.6333 40.6611 67.6639 42.1097 67.6639 43.8974Z" fill="#E4EBEB"/>
<path opacity="0.2641" d="M67.5927 43.8873C67.5927 45.6538 55.6914 47.0874 41.0121 47.0874C26.3328 47.0874 14.4315 45.6559 14.4315 43.8873C14.4315 42.1209 26.3328 40.6895 41.0121 40.6895C55.6914 40.6895 67.5927 42.1209 67.5927 43.8873Z" fill="#E3EAEB"/>
<path opacity="0.2736" d="M67.5195 43.8786C67.5195 45.6258 55.7497 47.0424 41.2342 47.0424C26.7165 47.0424 14.9489 45.6258 14.9489 43.8786C14.9489 42.1314 26.7186 40.7148 41.2342 40.7148C55.7497 40.7148 67.5195 42.1314 67.5195 43.8786Z" fill="#E2E9EA"/>
<path opacity="0.283" d="M67.4461 43.8677C67.4461 45.5936 55.8099 46.9952 41.4539 46.9952C27.1 46.9952 15.4617 45.5957 15.4617 43.8677C15.4617 42.1418 27.0978 40.7402 41.4539 40.7402C55.8078 40.7402 67.4461 42.1397 67.4461 43.8677Z" fill="#E1E8E9"/>
<path opacity="0.2925" d="M67.3727 43.8569C67.3727 45.5635 55.8681 46.9481 41.6758 46.9481C27.4836 46.9481 15.9789 45.5635 15.9789 43.8569C15.9789 42.1502 27.4836 40.7656 41.6758 40.7656C55.8681 40.7678 67.3727 42.1502 67.3727 43.8569Z" fill="#E0E8E8"/>
<path opacity="0.3019" d="M67.2997 43.846C67.2997 45.5335 55.9265 46.9009 41.8959 46.9009C27.8653 46.9009 16.4921 45.5335 16.4921 43.846C16.4921 42.1585 27.8653 40.791 41.8959 40.791C55.9265 40.7931 67.2997 42.1606 67.2997 43.846Z" fill="#DFE7E8"/>
<path opacity="0.3113" d="M67.2264 43.838C67.2264 45.5042 55.9846 46.8567 42.1178 46.8567C28.251 46.8567 17.0093 45.5063 17.0093 43.838C17.0093 42.1719 28.251 40.8193 42.1178 40.8193C55.9846 40.8193 67.2264 42.1697 67.2264 43.838Z" fill="#DEE6E7"/>
<path opacity="0.3208" d="M67.153 43.8272C67.153 45.4741 56.0427 46.8096 42.3375 46.8096C28.6324 46.8096 17.5221 45.4741 17.5221 43.8272C17.5221 42.1802 28.6324 40.8447 42.3375 40.8447C56.0427 40.8447 67.153 42.1802 67.153 43.8272Z" fill="#DDE5E6"/>
<path opacity="0.3302" d="M42.5596 46.7624C56.1017 46.7624 67.0798 45.4434 67.0798 43.8163C67.0798 42.1892 56.1017 40.8701 42.5596 40.8701C29.0175 40.8701 18.0394 42.1892 18.0394 43.8163C18.0394 45.4434 29.0175 46.7624 42.5596 46.7624Z" fill="#DCE5E6"/>
<path opacity="0.3396" d="M67.0085 43.8083C67.0085 45.4147 56.1612 46.7182 42.7815 46.7182C29.4018 46.7182 18.5544 45.4147 18.5544 43.8083C18.5544 42.2019 29.4018 40.8984 42.7815 40.8984C56.1612 40.8984 67.0085 42.1998 67.0085 43.8083Z" fill="#DBE4E5"/>
<path opacity="0.3491" d="M43.0012 46.6711C56.2184 46.6711 66.933 45.3845 66.933 43.7974C66.933 42.2104 56.2184 40.9238 43.0012 40.9238C29.7841 40.9238 19.0695 42.2104 19.0695 43.7974C19.0695 45.3845 29.7841 46.6711 43.0012 46.6711Z" fill="#DAE3E4"/>
<path opacity="0.3585" d="M66.8622 43.7866C66.8622 45.3524 56.28 46.6239 43.2235 46.6239C30.1692 46.6239 19.5848 45.3546 19.5848 43.7866C19.5848 42.2207 30.1671 40.9492 43.2235 40.9492C56.2778 40.9492 66.8622 42.2207 66.8622 43.7866Z" fill="#D9E2E3"/>
<path opacity="0.3679" d="M66.7886 43.7757C66.7886 45.3224 56.3379 46.5768 43.4452 46.5768C30.5526 46.5768 20.1018 45.3224 20.1018 43.7757C20.1018 42.229 30.5526 40.9746 43.4452 40.9746C56.3379 40.9767 66.7886 42.229 66.7886 43.7757Z" fill="#D8E2E3"/>
<path opacity="0.3774" d="M43.6652 46.5316C56.3955 46.5316 66.7154 45.2937 66.7154 43.7668C66.7154 42.2398 56.3955 41.002 43.6652 41.002C30.9348 41.002 20.6149 42.2398 20.6149 43.7668C20.6149 45.2937 30.9348 46.5316 43.6652 46.5316Z" fill="#D7E1E2"/>
<path opacity="0.3868" d="M43.8872 46.4854C56.4545 46.4854 66.6422 45.2638 66.6422 43.7569C66.6422 42.2499 56.4545 41.0283 43.8872 41.0283C31.32 41.0283 21.1322 42.2499 21.1322 43.7569C21.1322 45.2638 31.32 46.4854 43.8872 46.4854Z" fill="#D6E0E1"/>
<path opacity="0.3962" d="M66.5688 43.746C66.5688 45.2329 56.5125 46.4383 44.1069 46.4383C31.7014 46.4383 21.645 45.2329 21.645 43.746C21.645 42.2591 31.7014 41.0537 44.1069 41.0537C56.5125 41.0558 66.5688 42.2591 66.5688 43.746Z" fill="#D5DFE0"/>
<path opacity="0.4057" d="M66.4955 43.7371C66.4955 45.2048 56.5706 46.3931 44.3289 46.3931C32.0871 46.3931 22.1622 45.2048 22.1622 43.7371C22.1622 42.2693 32.0871 41.0811 44.3289 41.0811C56.5706 41.0811 66.4955 42.2693 66.4955 43.7371Z" fill="#D4DFE0"/>
<path opacity="0.4151" d="M66.4224 43.7272C66.4224 45.1736 56.6289 46.3469 44.5488 46.3469C32.4687 46.3469 22.6753 45.1736 22.6753 43.7272C22.6753 42.2808 32.4687 41.1074 44.5488 41.1074C56.6311 41.1074 66.4224 42.2808 66.4224 43.7272Z" fill="#D3DEDF"/>
<path opacity="0.4245" d="M66.3511 43.7163C66.3511 45.1435 56.6892 46.2998 44.7728 46.2998C32.8565 46.2998 23.1946 45.1435 23.1946 43.7163C23.1946 42.2891 32.8565 41.1328 44.7728 41.1328C56.6892 41.1328 66.3511 42.2891 66.3511 43.7163Z" fill="#D2DDDE"/>
<path opacity="0.434" d="M44.9928 46.2526C56.7482 46.2526 66.2779 45.1122 66.2779 43.7054C66.2779 42.2986 56.7482 41.1582 44.9928 41.1582C33.2373 41.1582 23.7076 42.2986 23.7076 43.7054C23.7076 45.1122 33.2373 46.2526 44.9928 46.2526Z" fill="#D1DCDE"/>
<path opacity="0.4434" d="M66.2047 43.6965C66.2047 45.0832 56.8079 46.2075 45.2149 46.2075C33.6218 46.2075 24.225 45.0832 24.225 43.6965C24.225 42.3098 33.6218 41.1855 45.2149 41.1855C56.8057 41.1855 66.2047 42.3098 66.2047 43.6965Z" fill="#D0DCDD"/>
<path opacity="0.4528" d="M66.1313 43.6856C66.1313 45.0531 56.866 46.1603 45.4346 46.1603C34.0032 46.1603 24.7378 45.0531 24.7378 43.6856C24.7378 42.3181 34.0032 41.2109 45.4346 41.2109C56.866 41.2109 66.1313 42.3181 66.1313 43.6856Z" fill="#CFDBDC"/>
<path opacity="0.4623" d="M66.058 43.6757C66.058 45.0219 56.9241 46.1141 45.6565 46.1141C34.3889 46.1141 25.255 45.0219 25.255 43.6757C25.255 42.3296 34.3889 41.2373 45.6565 41.2373C56.9241 41.2373 66.058 42.3296 66.058 43.6757Z" fill="#CEDADB"/>
<path opacity="0.4717" d="M45.8788 46.069C56.9843 46.069 65.9872 44.9935 65.9872 43.6668C65.9872 42.3401 56.9843 41.2646 45.8788 41.2646C34.7732 41.2646 25.7704 42.3401 25.7704 43.6668C25.7704 44.9935 34.7732 46.069 45.8788 46.069Z" fill="#CDD9DB"/>
<path opacity="0.4811" d="M65.9116 43.6559C65.9116 44.9615 57.0407 46.0218 46.0985 46.0218C35.1564 46.0218 26.2854 44.9637 26.2854 43.6559C26.2854 42.3482 35.1564 41.29 46.0985 41.29C57.0407 41.29 65.9116 42.3482 65.9116 43.6559Z" fill="#CCD9DA"/>
<path opacity="0.4906" d="M65.8382 43.646C65.8382 44.9324 57.0987 45.9756 46.3182 45.9756C35.5377 45.9756 26.7982 44.9324 26.7982 43.646C26.7982 42.3596 35.5377 41.3164 46.3182 41.3164C57.1009 41.3164 65.8382 42.3596 65.8382 43.646Z" fill="#CBD8D9"/>
<path opacity="0.5" d="M46.5402 45.9285C57.1577 45.9285 65.7649 44.9017 65.7649 43.6351C65.7649 42.3686 57.1577 41.3418 46.5402 41.3418C35.9226 41.3418 27.3154 42.3686 27.3154 43.6351C27.3154 44.9017 35.9226 45.9285 46.5402 45.9285Z" fill="#CBD7D9"/>
<path opacity="0.5094" d="M65.6939 43.6262C65.6939 44.8721 57.2173 45.8833 46.7622 45.8833C36.3072 45.8833 27.8328 44.8721 27.8328 43.6262C27.8328 42.3803 36.3093 41.3691 46.7622 41.3691C57.2173 41.3691 65.6939 42.3782 65.6939 43.6262Z" fill="#CAD6D8"/>
<path opacity="0.5189" d="M65.6205 43.6153C65.6205 44.842 57.2776 45.8362 46.9841 45.8362C36.6907 45.8362 28.3478 44.842 28.3478 43.6153C28.3478 42.3887 36.6907 41.3945 46.9841 41.3945C57.2754 41.3945 65.6205 42.3887 65.6205 43.6153Z" fill="#C9D5D7"/>
<path opacity="0.5283" d="M47.2041 45.789C57.3348 45.789 65.5473 44.811 65.5473 43.6045C65.5473 42.398 57.3348 41.4199 47.2041 41.4199C37.0734 41.4199 28.8608 42.398 28.8608 43.6045C28.8608 44.811 37.0734 45.789 47.2041 45.789Z" fill="#C8D5D6"/>
<path opacity="0.5377" d="M65.4741 43.5965C65.4741 44.7827 57.3941 45.7448 47.4262 45.7448C37.4582 45.7448 29.3782 44.7827 29.3782 43.5965C29.3782 42.4104 37.4582 41.4482 47.4262 41.4482C57.3941 41.4461 65.4741 42.4083 65.4741 43.5965Z" fill="#C7D4D6"/>
<path opacity="0.5472" d="M65.4007 43.5856C65.4007 44.7526 57.4522 45.6977 47.6459 45.6977C37.8417 45.6977 29.891 44.7526 29.891 43.5856C29.891 42.4187 37.8395 41.4736 47.6459 41.4736C57.4522 41.4736 65.4007 42.4187 65.4007 43.5856Z" fill="#C6D3D5"/>
<path opacity="0.5566" d="M47.8678 45.6515C57.5105 45.6515 65.3274 44.7222 65.3274 43.5758C65.3274 42.4293 57.5105 41.5 47.8678 41.5C38.2251 41.5 30.4082 42.4293 30.4082 43.5758C30.4082 44.7222 38.2251 45.6515 47.8678 45.6515Z" fill="#C5D2D4"/>
<path opacity="0.566" d="M48.0898 45.6044C57.5706 45.6044 65.2563 44.6912 65.2563 43.5649C65.2563 42.4385 57.5706 41.5254 48.0898 41.5254C38.609 41.5254 30.9233 42.4385 30.9233 43.5649C30.9233 44.6912 38.609 45.6044 48.0898 45.6044Z" fill="#C4D2D3"/>
<path opacity="0.5755" d="M65.181 43.556C65.181 44.6632 57.6269 45.5592 48.3098 45.5592C38.9927 45.5592 31.4386 44.661 31.4386 43.556C31.4386 42.4487 38.9927 41.5527 48.3098 41.5527C57.6269 41.5527 65.181 42.4487 65.181 43.556Z" fill="#C3D1D3"/>
<path opacity="0.5849" d="M65.1098 43.546C65.1098 44.6319 57.6872 45.513 48.5317 45.513C39.3763 45.513 31.9536 44.6319 31.9536 43.546C31.9536 42.4602 39.3763 41.5791 48.5317 41.5791C57.6872 41.5791 65.1098 42.4602 65.1098 43.546Z" fill="#C2D0D2"/>
<path opacity="0.5943" d="M48.7538 45.4649C57.7465 45.4649 65.0366 44.6005 65.0366 43.5342C65.0366 42.4679 57.7465 41.6035 48.7538 41.6035C39.761 41.6035 32.4709 42.4679 32.4709 43.5342C32.4709 44.6005 39.761 45.4649 48.7538 45.4649Z" fill="#C1CFD1"/>
<path opacity="0.6038" d="M64.9633 43.5243C64.9633 44.5718 57.8057 45.4187 48.9735 45.4187C40.1435 45.4187 32.986 44.5696 32.986 43.5243C32.986 42.4768 40.1435 41.6299 48.9735 41.6299C57.8035 41.6299 64.9633 42.479 64.9633 43.5243Z" fill="#C0CFD1"/>
<path opacity="0.6132" d="M64.8899 43.5154C64.8899 44.5415 57.8638 45.3735 49.1954 45.3735C40.5271 45.3735 33.501 44.5415 33.501 43.5154C33.501 42.4892 40.5271 41.6572 49.1954 41.6572C57.8638 41.6572 64.8899 42.4892 64.8899 43.5154Z" fill="#BFCED0"/>
<path opacity="0.6226" d="M49.4175 45.3264C57.9222 45.3264 64.8167 44.5107 64.8167 43.5045C64.8167 42.4983 57.9222 41.6826 49.4175 41.6826C40.9128 41.6826 34.0183 42.4983 34.0183 43.5045C34.0183 44.5107 40.9128 45.3264 49.4175 45.3264Z" fill="#BECDCF"/>
<path opacity="0.6321" d="M64.7433 43.4946C64.7433 44.4802 57.9801 45.2802 49.6372 45.2802C41.2943 45.2802 34.5311 44.4802 34.5311 43.4946C34.5311 42.509 41.2943 41.709 49.6372 41.709C57.9801 41.709 64.7433 42.509 64.7433 43.4946Z" fill="#BDCCCE"/>
<path opacity="0.6415" d="M64.67 43.4857C64.67 44.4521 58.0383 45.235 49.8591 45.235C41.6779 45.235 35.0483 44.4521 35.0483 43.4857C35.0483 42.5193 41.68 41.7363 49.8591 41.7363C58.0383 41.7342 64.67 42.5193 64.67 43.4857Z" fill="#BCCCCE"/>
<path opacity="0.6509" d="M50.0792 45.1879C58.0971 45.1879 64.5969 44.4209 64.5969 43.4748C64.5969 42.5287 58.0971 41.7617 50.0792 41.7617C42.0613 41.7617 35.5615 42.5287 35.5615 43.4748C35.5615 44.4209 42.0613 45.1879 50.0792 45.1879Z" fill="#BBCBCD"/>
<path opacity="0.6604" d="M50.3012 45.1417C58.156 45.1417 64.5236 44.391 64.5236 43.4649C64.5236 42.5388 58.156 41.7881 50.3012 41.7881C42.4463 41.7881 36.0787 42.5388 36.0787 43.4649C36.0787 44.391 42.4463 45.1417 50.3012 45.1417Z" fill="#BACACC"/>
<path opacity="0.6698" d="M64.4524 43.456C64.4524 44.3627 58.2173 45.0965 50.5231 45.0965C42.831 45.0965 36.5938 44.3605 36.5938 43.456C36.5938 42.5493 42.831 41.8154 50.5231 41.8154C58.2151 41.8133 64.4524 42.5493 64.4524 43.456Z" fill="#B9C9CB"/>
<path opacity="0.6792" d="M64.3792 43.4451C64.3792 44.3304 58.2755 45.0494 50.7451 45.0494C43.2147 45.0494 37.1111 44.3304 37.1111 43.4451C37.1111 42.5576 43.2147 41.8408 50.7451 41.8408C58.2734 41.8387 64.3792 42.5576 64.3792 43.4451Z" fill="#B8C9CB"/>
<path opacity="0.6887" d="M50.9648 45.0022C58.3328 45.0022 64.3058 44.3002 64.3058 43.4342C64.3058 42.5682 58.3328 41.8662 50.9648 41.8662C43.5968 41.8662 37.6239 42.5682 37.6239 43.4342C37.6239 44.3002 43.5968 45.0022 50.9648 45.0022Z" fill="#B7C8CA"/>
<path opacity="0.6981" d="M64.2324 43.4234C64.2324 44.2703 58.3917 44.9551 51.1868 44.9551C43.9818 44.9551 38.1411 44.2682 38.1411 43.4234C38.1411 42.5764 43.9818 41.8916 51.1868 41.8916C58.3917 41.8916 64.2324 42.5785 64.2324 43.4234Z" fill="#B6C7C9"/>
<path opacity="0.7075" d="M64.1594 43.4154C64.1594 44.2431 58.4502 44.9109 51.4069 44.9109C44.3635 44.9109 38.6543 44.241 38.6543 43.4154C38.6543 42.5898 44.3635 41.9199 51.4069 41.9199C58.4502 41.9178 64.1594 42.5877 64.1594 43.4154Z" fill="#B5C6C9"/>
<path opacity="0.717" d="M64.0861 43.4045C64.0861 44.2109 58.5083 44.8637 51.6288 44.8637C44.7493 44.8637 39.1715 44.2109 39.1715 43.4045C39.1715 42.5981 44.7493 41.9453 51.6288 41.9453C58.5083 41.9432 64.0861 42.5981 64.0861 43.4045Z" fill="#B4C6C8"/>
<path opacity="0.7264" d="M51.8507 44.8166C58.5688 44.8166 64.0149 44.1795 64.0149 43.3937C64.0149 42.6078 58.5688 41.9707 51.8507 41.9707C45.1326 41.9707 39.6865 42.6078 39.6865 43.3937C39.6865 44.1795 45.1326 44.8166 51.8507 44.8166Z" fill="#B3C5C7"/>
<path opacity="0.7358" d="M63.9395 43.3837C63.9395 44.1496 58.6247 44.7704 52.0706 44.7704C45.5143 44.7704 40.2017 44.1496 40.2017 43.3837C40.2017 42.6179 45.5165 41.9971 52.0706 41.9971C58.6268 41.9971 63.9395 42.6179 63.9395 43.3837Z" fill="#B2C4C6"/>
<path opacity="0.7453" d="M63.8683 43.3748C63.8683 44.1215 58.6849 44.7252 52.2925 44.7252C45.9 44.7252 40.7167 44.1194 40.7167 43.3748C40.7167 42.6282 45.9 42.0244 52.2925 42.0244C58.6849 42.0244 63.8683 42.6282 63.8683 43.3748Z" fill="#B1C3C6"/>
<path opacity="0.7547" d="M63.7949 43.3641C63.7949 44.0895 58.7452 44.6804 52.5144 44.6804C46.2836 44.6804 41.2339 44.0916 41.2339 43.3641C41.2339 42.6367 46.2858 42.0479 52.5144 42.0479C58.7431 42.0479 63.7949 42.6367 63.7949 43.3641Z" fill="#B0C3C5"/>
<path opacity="0.7642" d="M63.7219 43.3533C63.7219 44.0594 58.8036 44.6333 52.7345 44.6333C46.6675 44.6333 41.7471 44.0615 41.7471 43.3533C41.7471 42.6471 46.6675 42.0732 52.7345 42.0732C58.8015 42.0754 63.7219 42.6471 63.7219 43.3533Z" fill="#AFC2C4"/>
<path opacity="0.7736" d="M63.6486 43.3443C63.6486 44.0313 58.8618 44.5881 52.9564 44.5881C47.0511 44.5881 42.2643 44.0313 42.2643 43.3443C42.2643 42.6574 47.0511 42.1006 52.9564 42.1006C58.8618 42.1006 63.6486 42.6574 63.6486 43.3443Z" fill="#AEC1C3"/>
<path opacity="0.783" d="M63.5752 43.3344C63.5752 44 58.9198 44.5419 53.1761 44.5419C47.4324 44.5419 42.7771 44.0022 42.7771 43.3344C42.7771 42.6688 47.4324 42.127 53.1761 42.127C58.9198 42.127 63.5752 42.6667 63.5752 43.3344Z" fill="#ADC0C3"/>
<path opacity="0.7925" d="M63.502 43.3236C63.502 43.97 58.9781 44.4948 53.3982 44.4948C47.8183 44.4948 43.2944 43.97 43.2944 43.3236C43.2944 42.6772 47.8183 42.1523 53.3982 42.1523C58.9781 42.1545 63.502 42.6772 63.502 43.3236Z" fill="#ACC0C2"/>
<path opacity="0.8019" d="M63.4288 43.3127C63.4288 43.9399 59.0364 44.4476 53.6181 44.4476C48.1999 44.4476 43.8075 43.9399 43.8075 43.3127C43.8075 42.6855 48.1999 42.1777 53.6181 42.1777C59.0364 42.1799 63.4288 42.6876 63.4288 43.3127Z" fill="#ABBFC1"/>
<path opacity="0.8113" d="M63.3555 43.3047C63.3555 43.9106 59.0946 44.4034 53.8401 44.4034C48.5835 44.4034 44.3247 43.9127 44.3247 43.3047C44.3247 42.6989 48.5856 42.2061 53.8401 42.2061C59.0967 42.2061 63.3555 42.6967 63.3555 43.3047Z" fill="#AABEC1"/>
<path opacity="0.8208" d="M63.2844 43.2939C63.2844 43.8805 59.1549 44.3563 54.0621 44.3563C48.9693 44.3563 44.8398 43.8805 44.8398 43.2939C44.8398 42.7072 48.9693 42.2314 54.0621 42.2314C59.1549 42.2314 63.2844 42.7072 63.2844 43.2939Z" fill="#A9BDC0"/>
<path opacity="0.8302" d="M63.2111 43.283C63.2111 43.8483 59.2152 44.3091 54.2841 44.3091C49.3529 44.3091 45.3571 43.8504 45.3571 43.283C45.3571 42.7155 49.355 42.2568 54.2841 42.2568C59.2131 42.259 63.2111 42.7176 63.2111 43.283Z" fill="#A8BDBF"/>
<path opacity="0.8396" d="M63.1377 43.2741C63.1377 43.8202 59.2733 44.2639 54.5038 44.2639C49.7364 44.2639 45.8699 43.8202 45.8699 43.2741C45.8699 42.7279 49.7342 42.2842 54.5038 42.2842C59.2712 42.2842 63.1377 42.7258 63.1377 43.2741Z" fill="#A7BCBE"/>
<path opacity="0.8491" d="M54.7258 44.2168C59.3311 44.2168 63.0645 43.7898 63.0645 43.2632C63.0645 42.7365 59.3311 42.3096 54.7258 42.3096C50.1205 42.3096 46.3872 42.7365 46.3872 43.2632C46.3872 43.7898 50.1205 44.2168 54.7258 44.2168Z" fill="#A6BBBE"/>
<path opacity="0.8585" d="M62.9913 43.2533C62.9913 43.7589 59.3899 44.1706 54.9458 44.1706C50.5017 44.1706 46.9003 43.761 46.9003 43.2533C46.9003 42.7477 50.5017 42.3359 54.9458 42.3359C59.3899 42.3359 62.9913 42.7477 62.9913 43.2533Z" fill="#A5BABD"/>
<path opacity="0.8679" d="M62.918 43.2424C62.918 43.7288 59.448 44.1235 55.1677 44.1235C50.8874 44.1235 47.4175 43.7288 47.4175 43.2424C47.4175 42.756 50.8874 42.3613 55.1677 42.3613C59.448 42.3635 62.918 42.756 62.918 43.2424Z" fill="#A4BABC"/>
<path opacity="0.8774" d="M62.8446 43.2345C62.8446 43.7017 59.5061 44.0793 55.3874 44.0793C51.2688 44.0793 47.9303 43.7017 47.9303 43.2345C47.9303 42.7672 51.2688 42.3896 55.3874 42.3896C59.5061 42.3896 62.8446 42.7672 62.8446 43.2345Z" fill="#A3B9BB"/>
<path opacity="0.8868" d="M62.7714 43.2236C62.7714 43.6695 59.5644 44.0321 55.6095 44.0321C51.6546 44.0321 48.4476 43.6695 48.4476 43.2236C48.4476 42.7777 51.6546 42.415 55.6095 42.415C59.5665 42.415 62.7714 42.7777 62.7714 43.2236Z" fill="#A2B8BB"/>
<path opacity="0.8962" d="M62.6979 43.2127C62.6979 43.6394 59.6224 43.985 55.8292 43.985C52.036 43.985 48.9604 43.6394 48.9604 43.2127C48.9604 42.786 52.036 42.4404 55.8292 42.4404C59.6246 42.4404 62.6979 42.786 62.6979 43.2127Z" fill="#A1B7BA"/>
<path opacity="0.9057" d="M62.6269 43.2048C62.6269 43.6101 59.6829 43.9408 56.0535 43.9408C52.4219 43.9408 49.48 43.6122 49.48 43.2048C49.48 42.7994 52.424 42.4688 56.0535 42.4688C59.6829 42.4688 62.6269 42.7973 62.6269 43.2048Z" fill="#A0B7B9"/>
<path opacity="0.9151" d="M62.5538 43.1929C62.5538 43.579 59.7433 43.8926 56.2734 43.8926C52.8056 43.8926 49.993 43.579 49.993 43.1929C49.993 42.8068 52.8056 42.4932 56.2734 42.4932C59.7412 42.4932 62.5538 42.8068 62.5538 43.1929Z" fill="#9FB6B9"/>
<path opacity="0.9245" d="M62.4805 43.183C62.4805 43.5499 59.8015 43.8465 56.4954 43.8465C53.1892 43.8465 50.5103 43.5499 50.5103 43.183C50.5103 42.8161 53.1892 42.5195 56.4954 42.5195C59.7993 42.5195 62.4805 42.8161 62.4805 43.183Z" fill="#9EB5B8"/>
<path opacity="0.934" d="M62.4072 43.1721C62.4072 43.5177 59.8597 43.7993 56.7152 43.7993C53.5728 43.7993 51.0232 43.5177 51.0232 43.1721C51.0232 42.8265 53.5707 42.5449 56.7152 42.5449C59.8597 42.5471 62.4072 42.8265 62.4072 43.1721Z" fill="#9DB4B7"/>
<path opacity="0.9434" d="M62.3338 43.1632C62.3338 43.4896 59.9178 43.7541 56.9371 43.7541C53.9564 43.7541 51.5404 43.4896 51.5404 43.1632C51.5404 42.8368 53.9564 42.5723 56.9371 42.5723C59.9178 42.5723 62.3338 42.8368 62.3338 43.1632Z" fill="#9CB4B6"/>
<path opacity="0.9528" d="M62.2604 43.1533C62.2604 43.4605 59.9759 43.708 57.1568 43.708C54.3378 43.708 52.0532 43.4605 52.0532 43.1533C52.0532 42.8461 54.3378 42.5986 57.1568 42.5986C59.9759 42.5986 62.2604 42.8461 62.2604 43.1533Z" fill="#9BB3B6"/>
<path opacity="0.9623" d="M62.1872 43.1424C62.1872 43.4283 60.0342 43.6608 57.3789 43.6608C54.7236 43.6608 52.5706 43.4283 52.5706 43.1424C52.5706 42.8566 54.7236 42.624 57.3789 42.624C60.0342 42.624 62.1872 42.8566 62.1872 43.1424Z" fill="#9AB2B5"/>
<path opacity="0.9717" d="M62.1141 43.1335C62.1141 43.4002 60.0925 43.6156 57.5988 43.6156C55.1052 43.6156 53.0836 43.4002 53.0836 43.1335C53.0836 42.8668 55.1052 42.6514 57.5988 42.6514C60.0946 42.6514 62.1141 42.8668 62.1141 43.1335Z" fill="#99B1B4"/>
<path opacity="0.9811" d="M62.0431 43.1236C62.0431 43.3689 60.1529 43.5695 57.8231 43.5695C55.4933 43.5695 53.6031 43.3711 53.6031 43.1236C53.6031 42.8761 55.4933 42.6777 57.8231 42.6777C60.1529 42.6777 62.0431 42.8761 62.0431 43.1236Z" fill="#98B1B3"/>
<path opacity="0.9906" d="M61.9697 43.1127C61.9697 43.3389 60.211 43.5223 58.045 43.5223C55.8768 43.5223 54.1182 43.3389 54.1182 43.1127C54.1182 42.8866 55.8768 42.7031 58.045 42.7031C60.211 42.7031 61.9697 42.8866 61.9697 43.1127Z" fill="#97B0B3"/>
<path d="M61.8963 43.1019C61.8963 43.3088 60.2713 43.4752 58.2648 43.4752C56.2582 43.4752 54.6332 43.3088 54.6332 43.1019C54.6332 42.8949 56.2582 42.7285 58.2648 42.7285C60.2691 42.7285 61.8963 42.8971 61.8963 43.1019Z" fill="#96AFB2"/>
</g>
<path d="M13.338 36.6887C13.3155 36.2961 13.2874 36.0235 13.286 35.7523C13.2818 33.6578 13.2607 31.562 13.2944 29.4675C13.3057 28.7938 13.12 28.3715 12.5349 27.9648C9.54189 25.8887 7.23945 23.2137 6.22958 19.6547C5.01436 15.3754 5.96234 11.459 8.65439 7.9635C11.1959 4.66291 14.5955 2.58962 18.5013 1.37785C25.7856 -0.880452 32.8898 -0.429922 39.6621 3.22799C43.0462 5.05553 45.7664 7.6316 47.2488 11.2627C49.1842 15.9996 48.374 20.4173 45.2347 24.3676C42.4681 27.849 38.7563 29.9491 34.5495 31.1821C30.5044 32.367 26.3904 32.5195 22.2342 31.843C21.9472 31.7964 21.5844 31.8981 21.3242 32.0492C18.9275 33.4319 16.5463 34.84 14.158 36.2382C13.9246 36.3766 13.6826 36.5009 13.338 36.6887ZM34.0896 16.0971C34.0783 18.2395 35.7296 19.9711 37.7999 19.9908C39.8675 20.0106 41.6003 18.2876 41.6214 16.1903C41.6425 14.0986 39.9378 12.3149 37.8928 12.2909C35.828 12.2668 34.0994 13.9955 34.0896 16.0971ZM19.8656 16.1493C19.867 14.0337 18.1722 12.2979 16.099 12.2894C14.075 12.2824 12.293 14.0774 12.2874 16.1324C12.2818 18.1873 14.0554 19.9951 16.0779 19.9979C18.1201 19.9993 19.8642 18.2268 19.8656 16.1493ZM30.6971 16.1437C30.6971 13.9998 29.036 12.2852 26.9628 12.2909C24.8714 12.2965 23.2117 13.9941 23.2061 16.1352C23.2018 18.224 24.915 19.9852 26.9614 19.9951C29.0276 20.0049 30.6971 18.2833 30.6971 16.1437Z" fill="url(#paint0_linear_806_1705)"/>
<path d="M42.3162 31.2423C47.7918 27.5265 50.8832 22.4817 50.8523 15.9455C50.8214 9.32312 47.2502 4.58196 41.8296 1.08505C41.8479 1.0215 41.8676 0.957943 41.8858 0.892976C42.9309 0.693839 43.9689 0.436796 45.0224 0.305451C51.2222 -0.471326 57.1155 0.401488 62.5052 3.74728C65.7626 5.76972 68.2943 8.46866 69.4983 12.1817C70.9442 16.6361 70.0834 20.7544 67.1579 24.3573C66.0763 25.6891 64.712 26.802 63.3941 27.9163C62.8385 28.3852 62.5642 28.8004 62.5825 29.5447C62.636 31.6138 62.6022 33.6842 62.5952 35.7547C62.5938 36.023 62.553 36.2914 62.5192 36.6995C61.778 36.2716 61.1535 35.9171 60.5347 35.5542C58.5754 34.4031 56.6119 33.2591 54.6639 32.0883C54.2307 31.8285 53.8355 31.8016 53.3404 31.8878C49.782 32.5064 46.2516 32.2804 42.7537 31.4288C42.6468 31.4033 42.5441 31.3412 42.3162 31.2423ZM63.5685 16.1729C63.5769 14.1165 61.8272 12.3059 59.8159 12.2932C57.7864 12.2791 56.0268 14.0502 56.0198 16.1136C56.0128 18.2094 57.709 19.9678 59.7555 19.9861C61.7822 20.0031 63.56 18.225 63.5685 16.1729Z" fill="url(#paint1_linear_806_1705)"/>
<defs>
<linearGradient id="paint0_linear_806_1705" x1="26.9994" y1="0" x2="26.9994" y2="36.6887" gradientUnits="userSpaceOnUse">
<stop stop-color="#094953"/>
<stop offset="0.9999" stop-color="#147A89"/>
<stop offset="1" stop-color="#218D9D" stop-opacity="0"/>
</linearGradient>
<linearGradient id="paint1_linear_806_1705" x1="56.0076" y1="0.0410156" x2="56.0076" y2="36.6995" gradientUnits="userSpaceOnUse">
<stop stop-color="#094953"/>
<stop offset="0.9999" stop-color="#147A89"/>
<stop offset="1" stop-color="#218D9D" stop-opacity="0"/>
</linearGradient>
</defs>
</svg>
