<svg width="31" height="30" viewBox="0 0 31 30" fill="none" xmlns="http://www.w3.org/2000/svg">
<path id="Vector" d="M21.8374 2.25C20.3103 0.75 18.3251 0 16.4926 0C14.6601 0 12.5222 0.75 11.1478 2.25L2.29064 10.65C-0.763547 13.65 -0.763547 18.3 2.29064 21.3C5.34483 24.3 10.0788 24.3 13.133 21.3L21.8374 12.75C24.7389 9.9 24.7389 5.1 21.8374 2.25ZM19.6995 10.65L15.4236 14.85L9.92611 9.6L3.2069 16.2C3.2069 15 3.51232 13.65 4.58128 12.75L13.2857 4.2C14.0493 3.45 15.2709 3 16.3399 3C17.4089 3 18.6305 3.45 19.5468 4.2C21.3793 6.15 21.3793 8.85 19.6995 10.65ZM27.0296 7.65C27.0296 8.85 26.7241 9.9 26.4187 11.1C27.9458 12.9 27.9458 15.6 26.266 17.25L21.9901 21.45L19.6995 19.2L15.4236 23.4C13.4384 25.35 10.6897 26.4 8.0936 26.4C8.39901 26.85 8.70443 27.3 9.16256 27.75C12.2167 30.75 16.9507 30.75 20.0049 27.75L28.7094 19.2C31.7635 16.2 31.7635 11.55 28.7094 8.55C27.9458 8.25 27.4877 7.95 27.0296 7.65Z" fill="#094953"/>
</svg>
